<mxfile host="app.diagrams.net" agent="Mozilla/5.0 (Windows NT 10.0; Win64; x64) AppleWebKit/537.36 (KHTML, like Gecko) Chrome/140.0.0.0 Safari/537.36" version="28.2.4" pages="5">
  <diagram name="Page-1" id="9361dd3d-8414-5efd-6122-117bd74ce7a7">
    <mxGraphModel dx="1320" dy="743" grid="1" gridSize="10" guides="1" tooltips="1" connect="1" arrows="1" fold="1" page="0" pageScale="1.5" pageWidth="826" pageHeight="1169" background="none" math="0" shadow="0">
      <root>
        <mxCell id="0" />
        <mxCell id="1" parent="0" />
        <mxCell id="71" value="rt submit_changes" style="rounded=1;fontStyle=1;fillColor=#FFD966;strokeColor=none" parent="1" vertex="1">
          <mxGeometry x="50" y="20" width="150" height="30" as="geometry" />
        </mxCell>
        <mxCell id="szd9Xjz8gZIb1vQ61mhi-89" value="realDeviceControl" style="swimlane;fontStyle=1;align=center;verticalAlign=top;childLayout=stackLayout;horizontal=1;startSize=26;horizontalStack=0;resizeParent=1;resizeParentMax=0;resizeLast=0;collapsible=1;marginBottom=0;whiteSpace=wrap;html=1;fillColor=#1ba1e2;strokeColor=#006EAF;fontColor=#ffffff;" vertex="1" parent="1">
          <mxGeometry x="410" y="180" width="160" height="206" as="geometry" />
        </mxCell>
        <mxCell id="szd9Xjz8gZIb1vQ61mhi-90" value="realDev" style="text;strokeColor=#6c8ebf;fillColor=#dae8fc;align=left;verticalAlign=top;spacingLeft=4;spacingRight=4;overflow=hidden;rotatable=0;points=[[0,0.5],[1,0.5]];portConstraint=eastwest;whiteSpace=wrap;html=1;" vertex="1" parent="szd9Xjz8gZIb1vQ61mhi-89">
          <mxGeometry y="26" width="160" height="26" as="geometry" />
        </mxCell>
        <mxCell id="szd9Xjz8gZIb1vQ61mhi-91" value="ruleTable[2][5]" style="text;align=left;verticalAlign=top;spacingLeft=4;spacingRight=4;overflow=hidden;rotatable=0;points=[[0,0.5],[1,0.5]];portConstraint=eastwest;whiteSpace=wrap;html=1;fillColor=#dae8fc;strokeColor=#6c8ebf;" vertex="1" parent="szd9Xjz8gZIb1vQ61mhi-89">
          <mxGeometry y="52" width="160" height="26" as="geometry" />
        </mxCell>
        <mxCell id="szd9Xjz8gZIb1vQ61mhi-92" value="dscpToPbits[64]" style="text;strokeColor=#6c8ebf;fillColor=#dae8fc;align=left;verticalAlign=top;spacingLeft=4;spacingRight=4;overflow=hidden;rotatable=0;points=[[0,0.5],[1,0.5]];portConstraint=eastwest;whiteSpace=wrap;html=1;" vertex="1" parent="szd9Xjz8gZIb1vQ61mhi-89">
          <mxGeometry y="78" width="160" height="24" as="geometry" />
        </mxCell>
        <mxCell id="szd9Xjz8gZIb1vQ61mhi-93" value="tpidTable[4]" style="text;strokeColor=#6c8ebf;fillColor=#dae8fc;align=left;verticalAlign=top;spacingLeft=4;spacingRight=4;overflow=hidden;rotatable=0;points=[[0,0.5],[1,0.5]];portConstraint=eastwest;whiteSpace=wrap;html=1;" vertex="1" parent="szd9Xjz8gZIb1vQ61mhi-89">
          <mxGeometry y="102" width="160" height="26" as="geometry" />
        </mxCell>
        <mxCell id="szd9Xjz8gZIb1vQ61mhi-94" value="localStats" style="text;strokeColor=#6c8ebf;fillColor=#dae8fc;align=left;verticalAlign=top;spacingLeft=4;spacingRight=4;overflow=hidden;rotatable=0;points=[[0,0.5],[1,0.5]];portConstraint=eastwest;whiteSpace=wrap;html=1;" vertex="1" parent="szd9Xjz8gZIb1vQ61mhi-89">
          <mxGeometry y="128" width="160" height="26" as="geometry" />
        </mxCell>
        <mxCell id="szd9Xjz8gZIb1vQ61mhi-95" value="mode(ONT/RG)" style="text;strokeColor=#6c8ebf;fillColor=#dae8fc;align=left;verticalAlign=top;spacingLeft=4;spacingRight=4;overflow=hidden;rotatable=0;points=[[0,0.5],[1,0.5]];portConstraint=eastwest;whiteSpace=wrap;html=1;" vertex="1" parent="szd9Xjz8gZIb1vQ61mhi-89">
          <mxGeometry y="154" width="160" height="26" as="geometry" />
        </mxCell>
        <mxCell id="szd9Xjz8gZIb1vQ61mhi-96" value="vlanDevCtrlLL" style="text;strokeColor=#d79b00;fillColor=#ffe6cc;align=left;verticalAlign=top;spacingLeft=4;spacingRight=4;overflow=hidden;rotatable=0;points=[[0,0.5],[1,0.5]];portConstraint=eastwest;whiteSpace=wrap;html=1;" vertex="1" parent="szd9Xjz8gZIb1vQ61mhi-89">
          <mxGeometry y="180" width="160" height="26" as="geometry" />
        </mxCell>
        <mxCell id="szd9Xjz8gZIb1vQ61mhi-97" value="vlanDeviceControl" style="swimlane;fontStyle=1;align=center;verticalAlign=top;childLayout=stackLayout;horizontal=1;startSize=26;horizontalStack=0;resizeParent=1;resizeParentMax=0;resizeLast=0;collapsible=1;marginBottom=0;whiteSpace=wrap;html=1;fillColor=#1ba1e2;strokeColor=#006EAF;fontColor=#ffffff;" vertex="1" parent="1">
          <mxGeometry x="690" y="258" width="160" height="128" as="geometry" />
        </mxCell>
        <mxCell id="szd9Xjz8gZIb1vQ61mhi-98" value="vlanDev(net_device::name)" style="text;strokeColor=#6c8ebf;fillColor=#dae8fc;align=left;verticalAlign=top;spacingLeft=4;spacingRight=4;overflow=hidden;rotatable=0;points=[[0,0.5],[1,0.5]];portConstraint=eastwest;whiteSpace=wrap;html=1;" vertex="1" parent="szd9Xjz8gZIb1vQ61mhi-97">
          <mxGeometry y="26" width="160" height="26" as="geometry" />
        </mxCell>
        <mxCell id="szd9Xjz8gZIb1vQ61mhi-99" value="realDevCtrl" style="text;align=left;verticalAlign=top;spacingLeft=4;spacingRight=4;overflow=hidden;rotatable=0;points=[[0,0.5],[1,0.5]];portConstraint=eastwest;whiteSpace=wrap;html=1;fillColor=#dae8fc;strokeColor=#6c8ebf;" vertex="1" parent="szd9Xjz8gZIb1vQ61mhi-97">
          <mxGeometry y="52" width="160" height="26" as="geometry" />
        </mxCell>
        <mxCell id="szd9Xjz8gZIb1vQ61mhi-100" value="flags" style="text;strokeColor=#6c8ebf;fillColor=#dae8fc;align=left;verticalAlign=top;spacingLeft=4;spacingRight=4;overflow=hidden;rotatable=0;points=[[0,0.5],[1,0.5]];portConstraint=eastwest;whiteSpace=wrap;html=1;" vertex="1" parent="szd9Xjz8gZIb1vQ61mhi-97">
          <mxGeometry y="78" width="160" height="24" as="geometry" />
        </mxCell>
        <mxCell id="szd9Xjz8gZIb1vQ61mhi-101" value="vlanDevCtrlLL" style="text;strokeColor=#d79b00;fillColor=#ffe6cc;align=left;verticalAlign=top;spacingLeft=4;spacingRight=4;overflow=hidden;rotatable=0;points=[[0,0.5],[1,0.5]];portConstraint=eastwest;whiteSpace=wrap;html=1;" vertex="1" parent="szd9Xjz8gZIb1vQ61mhi-97">
          <mxGeometry y="102" width="160" height="26" as="geometry" />
        </mxCell>
        <mxCell id="szd9Xjz8gZIb1vQ61mhi-102" value="vlanDeviceControl" style="swimlane;fontStyle=1;align=center;verticalAlign=top;childLayout=stackLayout;horizontal=1;startSize=26;horizontalStack=0;resizeParent=1;resizeParentMax=0;resizeLast=0;collapsible=1;marginBottom=0;whiteSpace=wrap;html=1;fillColor=#1ba1e2;strokeColor=#006EAF;fontColor=#ffffff;" vertex="1" parent="1">
          <mxGeometry x="930" y="258" width="160" height="128" as="geometry" />
        </mxCell>
        <mxCell id="szd9Xjz8gZIb1vQ61mhi-103" value="vlanDev(net_device)" style="text;strokeColor=#6c8ebf;fillColor=#dae8fc;align=left;verticalAlign=top;spacingLeft=4;spacingRight=4;overflow=hidden;rotatable=0;points=[[0,0.5],[1,0.5]];portConstraint=eastwest;whiteSpace=wrap;html=1;" vertex="1" parent="szd9Xjz8gZIb1vQ61mhi-102">
          <mxGeometry y="26" width="160" height="26" as="geometry" />
        </mxCell>
        <mxCell id="szd9Xjz8gZIb1vQ61mhi-104" value="realDevCtrl" style="text;align=left;verticalAlign=top;spacingLeft=4;spacingRight=4;overflow=hidden;rotatable=0;points=[[0,0.5],[1,0.5]];portConstraint=eastwest;whiteSpace=wrap;html=1;fillColor=#dae8fc;strokeColor=#6c8ebf;" vertex="1" parent="szd9Xjz8gZIb1vQ61mhi-102">
          <mxGeometry y="52" width="160" height="26" as="geometry" />
        </mxCell>
        <mxCell id="szd9Xjz8gZIb1vQ61mhi-105" value="flags" style="text;strokeColor=#6c8ebf;fillColor=#dae8fc;align=left;verticalAlign=top;spacingLeft=4;spacingRight=4;overflow=hidden;rotatable=0;points=[[0,0.5],[1,0.5]];portConstraint=eastwest;whiteSpace=wrap;html=1;" vertex="1" parent="szd9Xjz8gZIb1vQ61mhi-102">
          <mxGeometry y="78" width="160" height="24" as="geometry" />
        </mxCell>
        <mxCell id="szd9Xjz8gZIb1vQ61mhi-106" value="vlanDevCtrlLL" style="text;strokeColor=#d79b00;fillColor=#ffe6cc;align=left;verticalAlign=top;spacingLeft=4;spacingRight=4;overflow=hidden;rotatable=0;points=[[0,0.5],[1,0.5]];portConstraint=eastwest;whiteSpace=wrap;html=1;" vertex="1" parent="szd9Xjz8gZIb1vQ61mhi-102">
          <mxGeometry y="102" width="160" height="26" as="geometry" />
        </mxCell>
        <mxCell id="szd9Xjz8gZIb1vQ61mhi-107" value="" style="edgeStyle=orthogonalEdgeStyle;rounded=0;orthogonalLoop=1;jettySize=auto;html=1;" edge="1" parent="1" source="szd9Xjz8gZIb1vQ61mhi-101" target="szd9Xjz8gZIb1vQ61mhi-106">
          <mxGeometry relative="1" as="geometry" />
        </mxCell>
        <mxCell id="_9baZjA_pt81Gi8yqdv1-71" style="edgeStyle=orthogonalEdgeStyle;rounded=0;orthogonalLoop=1;jettySize=auto;html=1;entryX=1;entryY=0.049;entryDx=0;entryDy=0;entryPerimeter=0;" edge="1" parent="1" source="szd9Xjz8gZIb1vQ61mhi-99" target="szd9Xjz8gZIb1vQ61mhi-89">
          <mxGeometry relative="1" as="geometry" />
        </mxCell>
      </root>
    </mxGraphModel>
  </diagram>
  <diagram id="3ZidsHmU-3AuA2cXNpXN" name="Page-2">
    <mxGraphModel dx="1320" dy="743" grid="1" gridSize="10" guides="1" tooltips="1" connect="1" arrows="1" fold="1" page="1" pageScale="1" pageWidth="850" pageHeight="1100" math="0" shadow="0">
      <root>
        <mxCell id="0" />
        <mxCell id="1" parent="0" />
        <mxCell id="Pus0KtjVYWj6FCgfk7g6-1" value="" style="group" vertex="1" connectable="0" parent="1">
          <mxGeometry x="77" y="80" width="710" height="936" as="geometry" />
        </mxCell>
        <mxCell id="Pus0KtjVYWj6FCgfk7g6-2" value="bcmVlan_ruleTable_t" style="swimlane;fontStyle=1;align=center;verticalAlign=top;childLayout=stackLayout;horizontal=1;startSize=26;horizontalStack=0;resizeParent=1;resizeParentMax=0;resizeLast=0;collapsible=1;marginBottom=0;whiteSpace=wrap;html=1;fillColor=#1ba1e2;strokeColor=#006EAF;fontColor=#ffffff;" vertex="1" parent="Pus0KtjVYWj6FCgfk7g6-1">
          <mxGeometry y="181" width="160" height="206" as="geometry" />
        </mxCell>
        <mxCell id="Pus0KtjVYWj6FCgfk7g6-3" value="defaultTpid" style="text;strokeColor=#6c8ebf;fillColor=#dae8fc;align=left;verticalAlign=top;spacingLeft=4;spacingRight=4;overflow=hidden;rotatable=0;points=[[0,0.5],[1,0.5]];portConstraint=eastwest;whiteSpace=wrap;html=1;" vertex="1" parent="Pus0KtjVYWj6FCgfk7g6-2">
          <mxGeometry y="26" width="160" height="26" as="geometry" />
        </mxCell>
        <mxCell id="Pus0KtjVYWj6FCgfk7g6-4" value="defaultPbits" style="text;align=left;verticalAlign=top;spacingLeft=4;spacingRight=4;overflow=hidden;rotatable=0;points=[[0,0.5],[1,0.5]];portConstraint=eastwest;whiteSpace=wrap;html=1;fillColor=#dae8fc;strokeColor=#6c8ebf;" vertex="1" parent="Pus0KtjVYWj6FCgfk7g6-2">
          <mxGeometry y="52" width="160" height="26" as="geometry" />
        </mxCell>
        <mxCell id="Pus0KtjVYWj6FCgfk7g6-5" value="defaultCfi" style="text;strokeColor=#6c8ebf;fillColor=#dae8fc;align=left;verticalAlign=top;spacingLeft=4;spacingRight=4;overflow=hidden;rotatable=0;points=[[0,0.5],[1,0.5]];portConstraint=eastwest;whiteSpace=wrap;html=1;" vertex="1" parent="Pus0KtjVYWj6FCgfk7g6-2">
          <mxGeometry y="78" width="160" height="24" as="geometry" />
        </mxCell>
        <mxCell id="Pus0KtjVYWj6FCgfk7g6-6" value="defaultVid" style="text;strokeColor=#6c8ebf;fillColor=#dae8fc;align=left;verticalAlign=top;spacingLeft=4;spacingRight=4;overflow=hidden;rotatable=0;points=[[0,0.5],[1,0.5]];portConstraint=eastwest;whiteSpace=wrap;html=1;" vertex="1" parent="Pus0KtjVYWj6FCgfk7g6-2">
          <mxGeometry y="102" width="160" height="26" as="geometry" />
        </mxCell>
        <mxCell id="Pus0KtjVYWj6FCgfk7g6-7" value="defaultAction" style="text;strokeColor=#6c8ebf;fillColor=#dae8fc;align=left;verticalAlign=top;spacingLeft=4;spacingRight=4;overflow=hidden;rotatable=0;points=[[0,0.5],[1,0.5]];portConstraint=eastwest;whiteSpace=wrap;html=1;" vertex="1" parent="Pus0KtjVYWj6FCgfk7g6-2">
          <mxGeometry y="128" width="160" height="26" as="geometry" />
        </mxCell>
        <mxCell id="Pus0KtjVYWj6FCgfk7g6-8" value="defaultRxVlanDev" style="text;strokeColor=#6c8ebf;fillColor=#dae8fc;align=left;verticalAlign=top;spacingLeft=4;spacingRight=4;overflow=hidden;rotatable=0;points=[[0,0.5],[1,0.5]];portConstraint=eastwest;whiteSpace=wrap;html=1;" vertex="1" parent="Pus0KtjVYWj6FCgfk7g6-2">
          <mxGeometry y="154" width="160" height="26" as="geometry" />
        </mxCell>
        <mxCell id="Pus0KtjVYWj6FCgfk7g6-9" value="tableEntryLL" style="text;strokeColor=#d79b00;fillColor=#ffe6cc;align=left;verticalAlign=top;spacingLeft=4;spacingRight=4;overflow=hidden;rotatable=0;points=[[0,0.5],[1,0.5]];portConstraint=eastwest;whiteSpace=wrap;html=1;" vertex="1" parent="Pus0KtjVYWj6FCgfk7g6-2">
          <mxGeometry y="180" width="160" height="26" as="geometry" />
        </mxCell>
        <mxCell id="Pus0KtjVYWj6FCgfk7g6-10" value="bcmVlan_tableEntry_t" style="swimlane;fontStyle=1;align=center;verticalAlign=top;childLayout=stackLayout;horizontal=1;startSize=26;horizontalStack=0;resizeParent=1;resizeParentMax=0;resizeLast=0;collapsible=1;marginBottom=0;whiteSpace=wrap;html=1;fillColor=#1ba1e2;strokeColor=#006EAF;fontColor=#ffffff;" vertex="1" parent="Pus0KtjVYWj6FCgfk7g6-1">
          <mxGeometry x="270" y="231" width="200" height="154" as="geometry" />
        </mxCell>
        <mxCell id="Pus0KtjVYWj6FCgfk7g6-11" value="rxRealDev" style="text;strokeColor=#6c8ebf;fillColor=#dae8fc;align=left;verticalAlign=top;spacingLeft=4;spacingRight=4;overflow=hidden;rotatable=0;points=[[0,0.5],[1,0.5]];portConstraint=eastwest;whiteSpace=wrap;html=1;" vertex="1" parent="Pus0KtjVYWj6FCgfk7g6-10">
          <mxGeometry y="26" width="200" height="26" as="geometry" />
        </mxCell>
        <mxCell id="Pus0KtjVYWj6FCgfk7g6-12" value="txVlanDev" style="text;align=left;verticalAlign=top;spacingLeft=4;spacingRight=4;overflow=hidden;rotatable=0;points=[[0,0.5],[1,0.5]];portConstraint=eastwest;whiteSpace=wrap;html=1;fillColor=#dae8fc;strokeColor=#6c8ebf;" vertex="1" parent="Pus0KtjVYWj6FCgfk7g6-10">
          <mxGeometry y="52" width="200" height="26" as="geometry" />
        </mxCell>
        <mxCell id="Pus0KtjVYWj6FCgfk7g6-13" value="rxVlanDev" style="text;strokeColor=#6c8ebf;fillColor=#dae8fc;align=left;verticalAlign=top;spacingLeft=4;spacingRight=4;overflow=hidden;rotatable=0;points=[[0,0.5],[1,0.5]];portConstraint=eastwest;whiteSpace=wrap;html=1;" vertex="1" parent="Pus0KtjVYWj6FCgfk7g6-10">
          <mxGeometry y="78" width="200" height="24" as="geometry" />
        </mxCell>
        <mxCell id="Pus0KtjVYWj6FCgfk7g6-14" value="tagRule" style="text;strokeColor=#6c8ebf;fillColor=#dae8fc;align=left;verticalAlign=top;spacingLeft=4;spacingRight=4;overflow=hidden;rotatable=0;points=[[0,0.5],[1,0.5]];portConstraint=eastwest;whiteSpace=wrap;html=1;" vertex="1" parent="Pus0KtjVYWj6FCgfk7g6-10">
          <mxGeometry y="102" width="200" height="26" as="geometry" />
        </mxCell>
        <mxCell id="Pus0KtjVYWj6FCgfk7g6-15" value="tableEntryLL" style="text;strokeColor=#d79b00;fillColor=#ffe6cc;align=left;verticalAlign=top;spacingLeft=4;spacingRight=4;overflow=hidden;rotatable=0;points=[[0,0.5],[1,0.5]];portConstraint=eastwest;whiteSpace=wrap;html=1;" vertex="1" parent="Pus0KtjVYWj6FCgfk7g6-10">
          <mxGeometry y="128" width="200" height="26" as="geometry" />
        </mxCell>
        <mxCell id="Pus0KtjVYWj6FCgfk7g6-16" value="bcmVlan_tableEntry_t" style="swimlane;fontStyle=1;align=center;verticalAlign=top;childLayout=stackLayout;horizontal=1;startSize=26;horizontalStack=0;resizeParent=1;resizeParentMax=0;resizeLast=0;collapsible=1;marginBottom=0;whiteSpace=wrap;html=1;fillColor=#1ba1e2;strokeColor=#006EAF;fontColor=#ffffff;" vertex="1" parent="Pus0KtjVYWj6FCgfk7g6-1">
          <mxGeometry x="550" y="231" width="160" height="154" as="geometry" />
        </mxCell>
        <mxCell id="Pus0KtjVYWj6FCgfk7g6-17" value="rxRealDev" style="text;strokeColor=#6c8ebf;fillColor=#dae8fc;align=left;verticalAlign=top;spacingLeft=4;spacingRight=4;overflow=hidden;rotatable=0;points=[[0,0.5],[1,0.5]];portConstraint=eastwest;whiteSpace=wrap;html=1;" vertex="1" parent="Pus0KtjVYWj6FCgfk7g6-16">
          <mxGeometry y="26" width="160" height="26" as="geometry" />
        </mxCell>
        <mxCell id="Pus0KtjVYWj6FCgfk7g6-18" value="txVlanDev" style="text;align=left;verticalAlign=top;spacingLeft=4;spacingRight=4;overflow=hidden;rotatable=0;points=[[0,0.5],[1,0.5]];portConstraint=eastwest;whiteSpace=wrap;html=1;fillColor=#dae8fc;strokeColor=#6c8ebf;" vertex="1" parent="Pus0KtjVYWj6FCgfk7g6-16">
          <mxGeometry y="52" width="160" height="26" as="geometry" />
        </mxCell>
        <mxCell id="Pus0KtjVYWj6FCgfk7g6-19" value="rxVlanDev" style="text;strokeColor=#6c8ebf;fillColor=#dae8fc;align=left;verticalAlign=top;spacingLeft=4;spacingRight=4;overflow=hidden;rotatable=0;points=[[0,0.5],[1,0.5]];portConstraint=eastwest;whiteSpace=wrap;html=1;" vertex="1" parent="Pus0KtjVYWj6FCgfk7g6-16">
          <mxGeometry y="78" width="160" height="24" as="geometry" />
        </mxCell>
        <mxCell id="Pus0KtjVYWj6FCgfk7g6-20" value="tagRule" style="text;strokeColor=#6c8ebf;fillColor=#dae8fc;align=left;verticalAlign=top;spacingLeft=4;spacingRight=4;overflow=hidden;rotatable=0;points=[[0,0.5],[1,0.5]];portConstraint=eastwest;whiteSpace=wrap;html=1;" vertex="1" parent="Pus0KtjVYWj6FCgfk7g6-16">
          <mxGeometry y="102" width="160" height="26" as="geometry" />
        </mxCell>
        <mxCell id="Pus0KtjVYWj6FCgfk7g6-21" value="tableEntryLL" style="text;strokeColor=#d79b00;fillColor=#ffe6cc;align=left;verticalAlign=top;spacingLeft=4;spacingRight=4;overflow=hidden;rotatable=0;points=[[0,0.5],[1,0.5]];portConstraint=eastwest;whiteSpace=wrap;html=1;" vertex="1" parent="Pus0KtjVYWj6FCgfk7g6-16">
          <mxGeometry y="128" width="160" height="26" as="geometry" />
        </mxCell>
        <mxCell id="Pus0KtjVYWj6FCgfk7g6-22" value="z" style="swimlane;fontStyle=1;align=center;verticalAlign=top;childLayout=stackLayout;horizontal=1;startSize=26;horizontalStack=0;resizeParent=1;resizeParentMax=0;resizeLast=0;collapsible=1;marginBottom=0;whiteSpace=wrap;html=1;fillColor=#1ba1e2;strokeColor=#006EAF;fontColor=#ffffff;" vertex="1" parent="Pus0KtjVYWj6FCgfk7g6-1">
          <mxGeometry x="280" y="403" width="160" height="152" as="geometry" />
        </mxCell>
        <mxCell id="Pus0KtjVYWj6FCgfk7g6-23" value="filter" style="text;strokeColor=#6c8ebf;fillColor=#dae8fc;align=left;verticalAlign=top;spacingLeft=4;spacingRight=4;overflow=hidden;rotatable=0;points=[[0,0.5],[1,0.5]];portConstraint=eastwest;whiteSpace=wrap;html=1;" vertex="1" parent="Pus0KtjVYWj6FCgfk7g6-22">
          <mxGeometry y="26" width="160" height="24" as="geometry" />
        </mxCell>
        <mxCell id="Pus0KtjVYWj6FCgfk7g6-24" value="cmd" style="text;align=left;verticalAlign=top;spacingLeft=4;spacingRight=4;overflow=hidden;rotatable=0;points=[[0,0.5],[1,0.5]];portConstraint=eastwest;whiteSpace=wrap;html=1;fillColor=#dae8fc;strokeColor=#6c8ebf;" vertex="1" parent="Pus0KtjVYWj6FCgfk7g6-22">
          <mxGeometry y="50" width="160" height="26" as="geometry" />
        </mxCell>
        <mxCell id="Pus0KtjVYWj6FCgfk7g6-25" value="id" style="text;strokeColor=#6c8ebf;fillColor=#dae8fc;align=left;verticalAlign=top;spacingLeft=4;spacingRight=4;overflow=hidden;rotatable=0;points=[[0,0.5],[1,0.5]];portConstraint=eastwest;whiteSpace=wrap;html=1;" vertex="1" parent="Pus0KtjVYWj6FCgfk7g6-22">
          <mxGeometry y="76" width="160" height="24" as="geometry" />
        </mxCell>
        <mxCell id="Pus0KtjVYWj6FCgfk7g6-26" value="rxVlanDevName" style="text;strokeColor=#6c8ebf;fillColor=#dae8fc;align=left;verticalAlign=top;spacingLeft=4;spacingRight=4;overflow=hidden;rotatable=0;points=[[0,0.5],[1,0.5]];portConstraint=eastwest;whiteSpace=wrap;html=1;" vertex="1" parent="Pus0KtjVYWj6FCgfk7g6-22">
          <mxGeometry y="100" width="160" height="26" as="geometry" />
        </mxCell>
        <mxCell id="Pus0KtjVYWj6FCgfk7g6-27" value="type" style="text;strokeColor=#6c8ebf;fillColor=#dae8fc;align=left;verticalAlign=top;spacingLeft=4;spacingRight=4;overflow=hidden;rotatable=0;points=[[0,0.5],[1,0.5]];portConstraint=eastwest;whiteSpace=wrap;html=1;" vertex="1" parent="Pus0KtjVYWj6FCgfk7g6-22">
          <mxGeometry y="126" width="160" height="26" as="geometry" />
        </mxCell>
        <mxCell id="Pus0KtjVYWj6FCgfk7g6-28" value="bcmVlan_tagRuleFilter_t" style="swimlane;fontStyle=1;align=center;verticalAlign=top;childLayout=stackLayout;horizontal=1;startSize=26;horizontalStack=0;resizeParent=1;resizeParentMax=0;resizeLast=0;collapsible=1;marginBottom=0;whiteSpace=wrap;html=1;fillColor=#1ba1e2;strokeColor=#006EAF;fontColor=#ffffff;" vertex="1" parent="Pus0KtjVYWj6FCgfk7g6-1">
          <mxGeometry x="53" y="467" width="173" height="466" as="geometry" />
        </mxCell>
        <mxCell id="Pus0KtjVYWj6FCgfk7g6-29" value="skbPrio" style="text;strokeColor=#6c8ebf;fillColor=#dae8fc;align=left;verticalAlign=top;spacingLeft=4;spacingRight=4;overflow=hidden;rotatable=0;points=[[0,0.5],[1,0.5]];portConstraint=eastwest;whiteSpace=wrap;html=1;" vertex="1" parent="Pus0KtjVYWj6FCgfk7g6-28">
          <mxGeometry y="26" width="173" height="24" as="geometry" />
        </mxCell>
        <mxCell id="Pus0KtjVYWj6FCgfk7g6-30" value="skbMarkFlowId" style="text;align=left;verticalAlign=top;spacingLeft=4;spacingRight=4;overflow=hidden;rotatable=0;points=[[0,0.5],[1,0.5]];portConstraint=eastwest;whiteSpace=wrap;html=1;fillColor=#dae8fc;strokeColor=#6c8ebf;" vertex="1" parent="Pus0KtjVYWj6FCgfk7g6-28">
          <mxGeometry y="50" width="173" height="26" as="geometry" />
        </mxCell>
        <mxCell id="Pus0KtjVYWj6FCgfk7g6-31" value="skbMarkPort" style="text;strokeColor=#6c8ebf;fillColor=#dae8fc;align=left;verticalAlign=top;spacingLeft=4;spacingRight=4;overflow=hidden;rotatable=0;points=[[0,0.5],[1,0.5]];portConstraint=eastwest;whiteSpace=wrap;html=1;" vertex="1" parent="Pus0KtjVYWj6FCgfk7g6-28">
          <mxGeometry y="76" width="173" height="24" as="geometry" />
        </mxCell>
        <mxCell id="Pus0KtjVYWj6FCgfk7g6-32" value="skbGemport" style="text;strokeColor=#6c8ebf;fillColor=#dae8fc;align=left;verticalAlign=top;spacingLeft=4;spacingRight=4;overflow=hidden;rotatable=0;points=[[0,0.5],[1,0.5]];portConstraint=eastwest;whiteSpace=wrap;html=1;" vertex="1" parent="Pus0KtjVYWj6FCgfk7g6-28">
          <mxGeometry y="100" width="173" height="26" as="geometry" />
        </mxCell>
        <mxCell id="Pus0KtjVYWj6FCgfk7g6-33" value="skbMarkStreamId" style="text;strokeColor=#6c8ebf;fillColor=#dae8fc;align=left;verticalAlign=top;spacingLeft=4;spacingRight=4;overflow=hidden;rotatable=0;points=[[0,0.5],[1,0.5]];portConstraint=eastwest;whiteSpace=wrap;html=1;" vertex="1" parent="Pus0KtjVYWj6FCgfk7g6-28">
          <mxGeometry y="126" width="173" height="26" as="geometry" />
        </mxCell>
        <mxCell id="Pus0KtjVYWj6FCgfk7g6-34" value="etherType" style="text;strokeColor=#6c8ebf;fillColor=#dae8fc;align=left;verticalAlign=top;spacingLeft=4;spacingRight=4;overflow=hidden;rotatable=0;points=[[0,0.5],[1,0.5]];portConstraint=eastwest;whiteSpace=wrap;html=1;" vertex="1" parent="Pus0KtjVYWj6FCgfk7g6-28">
          <mxGeometry y="152" width="173" height="26" as="geometry" />
        </mxCell>
        <mxCell id="Pus0KtjVYWj6FCgfk7g6-35" value="dscp" style="text;strokeColor=#6c8ebf;fillColor=#dae8fc;align=left;verticalAlign=top;spacingLeft=4;spacingRight=4;overflow=hidden;rotatable=0;points=[[0,0.5],[1,0.5]];portConstraint=eastwest;whiteSpace=wrap;html=1;" vertex="1" parent="Pus0KtjVYWj6FCgfk7g6-28">
          <mxGeometry y="178" width="173" height="26" as="geometry" />
        </mxCell>
        <mxCell id="Pus0KtjVYWj6FCgfk7g6-36" value="dscp2pbits" style="text;strokeColor=#6c8ebf;fillColor=#dae8fc;align=left;verticalAlign=top;spacingLeft=4;spacingRight=4;overflow=hidden;rotatable=0;points=[[0,0.5],[1,0.5]];portConstraint=eastwest;whiteSpace=wrap;html=1;" vertex="1" parent="Pus0KtjVYWj6FCgfk7g6-28">
          <mxGeometry y="204" width="173" height="26" as="geometry" />
        </mxCell>
        <mxCell id="Pus0KtjVYWj6FCgfk7g6-37" value="vlanDevMacAddr" style="text;strokeColor=#6c8ebf;fillColor=#dae8fc;align=left;verticalAlign=top;spacingLeft=4;spacingRight=4;overflow=hidden;rotatable=0;points=[[0,0.5],[1,0.5]];portConstraint=eastwest;whiteSpace=wrap;html=1;" vertex="1" parent="Pus0KtjVYWj6FCgfk7g6-28">
          <mxGeometry y="230" width="173" height="26" as="geometry" />
        </mxCell>
        <mxCell id="Pus0KtjVYWj6FCgfk7g6-38" value="ipProto" style="text;strokeColor=#6c8ebf;fillColor=#dae8fc;align=left;verticalAlign=top;spacingLeft=4;spacingRight=4;overflow=hidden;rotatable=0;points=[[0,0.5],[1,0.5]];portConstraint=eastwest;whiteSpace=wrap;html=1;" vertex="1" parent="Pus0KtjVYWj6FCgfk7g6-28">
          <mxGeometry y="256" width="173" height="26" as="geometry" />
        </mxCell>
        <mxCell id="Pus0KtjVYWj6FCgfk7g6-39" value="flags" style="text;strokeColor=#6c8ebf;fillColor=#dae8fc;align=left;verticalAlign=top;spacingLeft=4;spacingRight=4;overflow=hidden;rotatable=0;points=[[0,0.5],[1,0.5]];portConstraint=eastwest;whiteSpace=wrap;html=1;" vertex="1" parent="Pus0KtjVYWj6FCgfk7g6-28">
          <mxGeometry y="282" width="173" height="26" as="geometry" />
        </mxCell>
        <mxCell id="Pus0KtjVYWj6FCgfk7g6-40" value="pppProtoRemarkFlag" style="text;strokeColor=#6c8ebf;fillColor=#dae8fc;align=left;verticalAlign=top;spacingLeft=4;spacingRight=4;overflow=hidden;rotatable=0;points=[[0,0.5],[1,0.5]];portConstraint=eastwest;whiteSpace=wrap;html=1;" vertex="1" parent="Pus0KtjVYWj6FCgfk7g6-28">
          <mxGeometry y="308" width="173" height="26" as="geometry" />
        </mxCell>
        <mxCell id="Pus0KtjVYWj6FCgfk7g6-41" value="destMac" style="text;strokeColor=#6c8ebf;fillColor=#dae8fc;align=left;verticalAlign=top;spacingLeft=4;spacingRight=4;overflow=hidden;rotatable=0;points=[[0,0.5],[1,0.5]];portConstraint=eastwest;whiteSpace=wrap;html=1;" vertex="1" parent="Pus0KtjVYWj6FCgfk7g6-28">
          <mxGeometry y="334" width="173" height="26" as="geometry" />
        </mxCell>
        <mxCell id="Pus0KtjVYWj6FCgfk7g6-42" value="srcMac" style="text;strokeColor=#6c8ebf;fillColor=#dae8fc;align=left;verticalAlign=top;spacingLeft=4;spacingRight=4;overflow=hidden;rotatable=0;points=[[0,0.5],[1,0.5]];portConstraint=eastwest;whiteSpace=wrap;html=1;" vertex="1" parent="Pus0KtjVYWj6FCgfk7g6-28">
          <mxGeometry y="360" width="173" height="26" as="geometry" />
        </mxCell>
        <mxCell id="Pus0KtjVYWj6FCgfk7g6-43" value="vlanTag" style="text;strokeColor=#6c8ebf;fillColor=#dae8fc;align=left;verticalAlign=top;spacingLeft=4;spacingRight=4;overflow=hidden;rotatable=0;points=[[0,0.5],[1,0.5]];portConstraint=eastwest;whiteSpace=wrap;html=1;" vertex="1" parent="Pus0KtjVYWj6FCgfk7g6-28">
          <mxGeometry y="386" width="173" height="26" as="geometry" />
        </mxCell>
        <mxCell id="Pus0KtjVYWj6FCgfk7g6-44" value="txVlanDevName" style="text;strokeColor=#6c8ebf;fillColor=#dae8fc;align=left;verticalAlign=top;spacingLeft=4;spacingRight=4;overflow=hidden;rotatable=0;points=[[0,0.5],[1,0.5]];portConstraint=eastwest;whiteSpace=wrap;html=1;" vertex="1" parent="Pus0KtjVYWj6FCgfk7g6-28">
          <mxGeometry y="412" width="173" height="28" as="geometry" />
        </mxCell>
        <mxCell id="Pus0KtjVYWj6FCgfk7g6-45" value="rxRealDevName" style="text;strokeColor=#6c8ebf;fillColor=#dae8fc;align=left;verticalAlign=top;spacingLeft=4;spacingRight=4;overflow=hidden;rotatable=0;points=[[0,0.5],[1,0.5]];portConstraint=eastwest;whiteSpace=wrap;html=1;" vertex="1" parent="Pus0KtjVYWj6FCgfk7g6-28">
          <mxGeometry y="440" width="173" height="26" as="geometry" />
        </mxCell>
        <mxCell id="Pus0KtjVYWj6FCgfk7g6-46" value="bcmVlan_vlanTag_t" style="swimlane;fontStyle=1;align=center;verticalAlign=top;childLayout=stackLayout;horizontal=1;startSize=26;horizontalStack=0;resizeParent=1;resizeParentMax=0;resizeLast=0;collapsible=1;marginBottom=0;whiteSpace=wrap;html=1;fillColor=#1ba1e2;strokeColor=#006EAF;fontColor=#ffffff;" vertex="1" parent="Pus0KtjVYWj6FCgfk7g6-1">
          <mxGeometry x="392" y="753" width="160" height="178" as="geometry" />
        </mxCell>
        <mxCell id="Pus0KtjVYWj6FCgfk7g6-47" value="tciMask" style="text;strokeColor=#666666;fillColor=#f5f5f5;align=left;verticalAlign=top;spacingLeft=4;spacingRight=4;overflow=hidden;rotatable=0;points=[[0,0.5],[1,0.5]];portConstraint=eastwest;whiteSpace=wrap;html=1;gradientColor=#b3b3b3;" vertex="1" parent="Pus0KtjVYWj6FCgfk7g6-46">
          <mxGeometry y="26" width="160" height="24" as="geometry" />
        </mxCell>
        <mxCell id="Pus0KtjVYWj6FCgfk7g6-48" value="tci" style="text;align=left;verticalAlign=top;spacingLeft=4;spacingRight=4;overflow=hidden;rotatable=0;points=[[0,0.5],[1,0.5]];portConstraint=eastwest;whiteSpace=wrap;html=1;fillColor=#f5f5f5;strokeColor=#666666;gradientColor=#b3b3b3;" vertex="1" parent="Pus0KtjVYWj6FCgfk7g6-46">
          <mxGeometry y="50" width="160" height="26" as="geometry" />
        </mxCell>
        <mxCell id="Pus0KtjVYWj6FCgfk7g6-49" value="etherType" style="text;strokeColor=#6c8ebf;fillColor=#dae8fc;align=left;verticalAlign=top;spacingLeft=4;spacingRight=4;overflow=hidden;rotatable=0;points=[[0,0.5],[1,0.5]];portConstraint=eastwest;whiteSpace=wrap;html=1;" vertex="1" parent="Pus0KtjVYWj6FCgfk7g6-46">
          <mxGeometry y="76" width="160" height="24" as="geometry" />
        </mxCell>
        <mxCell id="Pus0KtjVYWj6FCgfk7g6-50" value="pbits" style="text;strokeColor=#6c8ebf;fillColor=#dae8fc;align=left;verticalAlign=top;spacingLeft=4;spacingRight=4;overflow=hidden;rotatable=0;points=[[0,0.5],[1,0.5]];portConstraint=eastwest;whiteSpace=wrap;html=1;" vertex="1" parent="Pus0KtjVYWj6FCgfk7g6-46">
          <mxGeometry y="100" width="160" height="26" as="geometry" />
        </mxCell>
        <mxCell id="Pus0KtjVYWj6FCgfk7g6-51" value="cfi" style="text;strokeColor=#6c8ebf;fillColor=#dae8fc;align=left;verticalAlign=top;spacingLeft=4;spacingRight=4;overflow=hidden;rotatable=0;points=[[0,0.5],[1,0.5]];portConstraint=eastwest;whiteSpace=wrap;html=1;" vertex="1" parent="Pus0KtjVYWj6FCgfk7g6-46">
          <mxGeometry y="126" width="160" height="26" as="geometry" />
        </mxCell>
        <mxCell id="Pus0KtjVYWj6FCgfk7g6-52" value="vid" style="text;strokeColor=#6c8ebf;fillColor=#dae8fc;align=left;verticalAlign=top;spacingLeft=4;spacingRight=4;overflow=hidden;rotatable=0;points=[[0,0.5],[1,0.5]];portConstraint=eastwest;whiteSpace=wrap;html=1;" vertex="1" parent="Pus0KtjVYWj6FCgfk7g6-46">
          <mxGeometry y="152" width="160" height="26" as="geometry" />
        </mxCell>
        <mxCell id="Pus0KtjVYWj6FCgfk7g6-53" value="bcmVlan_tagRuleCommand_t" style="swimlane;fontStyle=1;align=center;verticalAlign=top;childLayout=stackLayout;horizontal=1;startSize=26;horizontalStack=0;resizeParent=1;resizeParentMax=0;resizeLast=0;collapsible=1;marginBottom=0;whiteSpace=wrap;html=1;fillColor=#1ba1e2;strokeColor=#006EAF;fontColor=#ffffff;" vertex="1" parent="Pus0KtjVYWj6FCgfk7g6-1">
          <mxGeometry x="490" y="573" width="220" height="78" as="geometry" />
        </mxCell>
        <mxCell id="Pus0KtjVYWj6FCgfk7g6-54" value="opCode" style="text;strokeColor=#6c8ebf;fillColor=#dae8fc;align=left;verticalAlign=top;spacingLeft=4;spacingRight=4;overflow=hidden;rotatable=0;points=[[0,0.5],[1,0.5]];portConstraint=eastwest;whiteSpace=wrap;html=1;" vertex="1" parent="Pus0KtjVYWj6FCgfk7g6-53">
          <mxGeometry y="26" width="220" height="26" as="geometry" />
        </mxCell>
        <mxCell id="Pus0KtjVYWj6FCgfk7g6-55" value="arg[2]" style="text;align=left;verticalAlign=top;spacingLeft=4;spacingRight=4;overflow=hidden;rotatable=0;points=[[0,0.5],[1,0.5]];portConstraint=eastwest;whiteSpace=wrap;html=1;fillColor=#dae8fc;strokeColor=#6c8ebf;" vertex="1" parent="Pus0KtjVYWj6FCgfk7g6-53">
          <mxGeometry y="52" width="220" height="26" as="geometry" />
        </mxCell>
        <mxCell id="Pus0KtjVYWj6FCgfk7g6-56" value="" style="edgeStyle=orthogonalEdgeStyle;rounded=0;orthogonalLoop=1;jettySize=auto;html=1;entryX=-0.006;entryY=0.097;entryDx=0;entryDy=0;entryPerimeter=0;" edge="1" parent="Pus0KtjVYWj6FCgfk7g6-1" source="Pus0KtjVYWj6FCgfk7g6-9" target="Pus0KtjVYWj6FCgfk7g6-10">
          <mxGeometry relative="1" as="geometry" />
        </mxCell>
        <mxCell id="Pus0KtjVYWj6FCgfk7g6-57" style="edgeStyle=orthogonalEdgeStyle;rounded=0;orthogonalLoop=1;jettySize=auto;html=1;entryX=0;entryY=0.5;entryDx=0;entryDy=0;dashed=1;" edge="1" parent="Pus0KtjVYWj6FCgfk7g6-1" source="Pus0KtjVYWj6FCgfk7g6-15" target="Pus0KtjVYWj6FCgfk7g6-21">
          <mxGeometry relative="1" as="geometry" />
        </mxCell>
        <mxCell id="Pus0KtjVYWj6FCgfk7g6-58" style="edgeStyle=orthogonalEdgeStyle;rounded=0;orthogonalLoop=1;jettySize=auto;html=1;entryX=0;entryY=0.112;entryDx=0;entryDy=0;entryPerimeter=0;" edge="1" parent="Pus0KtjVYWj6FCgfk7g6-1" source="Pus0KtjVYWj6FCgfk7g6-14" target="Pus0KtjVYWj6FCgfk7g6-22">
          <mxGeometry relative="1" as="geometry" />
        </mxCell>
        <mxCell id="Pus0KtjVYWj6FCgfk7g6-59" style="edgeStyle=orthogonalEdgeStyle;rounded=0;orthogonalLoop=1;jettySize=auto;html=1;exitX=0;exitY=0.5;exitDx=0;exitDy=0;entryX=0.25;entryY=0;entryDx=0;entryDy=0;" edge="1" parent="Pus0KtjVYWj6FCgfk7g6-1" source="Pus0KtjVYWj6FCgfk7g6-23" target="Pus0KtjVYWj6FCgfk7g6-28">
          <mxGeometry relative="1" as="geometry">
            <mxPoint x="48.96199999999999" y="621.174" as="targetPoint" />
          </mxGeometry>
        </mxCell>
        <mxCell id="Pus0KtjVYWj6FCgfk7g6-60" style="edgeStyle=orthogonalEdgeStyle;rounded=0;orthogonalLoop=1;jettySize=auto;html=1;exitX=1;exitY=0.5;exitDx=0;exitDy=0;entryX=0.019;entryY=0.073;entryDx=0;entryDy=0;entryPerimeter=0;" edge="1" parent="Pus0KtjVYWj6FCgfk7g6-1" source="Pus0KtjVYWj6FCgfk7g6-43" target="Pus0KtjVYWj6FCgfk7g6-46">
          <mxGeometry relative="1" as="geometry" />
        </mxCell>
        <mxCell id="Pus0KtjVYWj6FCgfk7g6-61" value="BCM_VLAN_MAX_TAGS=4" style="edgeLabel;html=1;align=center;verticalAlign=middle;resizable=0;points=[];" vertex="1" connectable="0" parent="Pus0KtjVYWj6FCgfk7g6-60">
          <mxGeometry x="-0.0807" relative="1" as="geometry">
            <mxPoint x="1" as="offset" />
          </mxGeometry>
        </mxCell>
        <mxCell id="Pus0KtjVYWj6FCgfk7g6-62" style="edgeStyle=orthogonalEdgeStyle;rounded=0;orthogonalLoop=1;jettySize=auto;html=1;exitX=1;exitY=0.5;exitDx=0;exitDy=0;entryX=0.423;entryY=0;entryDx=0;entryDy=0;entryPerimeter=0;" edge="1" parent="Pus0KtjVYWj6FCgfk7g6-1" source="Pus0KtjVYWj6FCgfk7g6-24" target="Pus0KtjVYWj6FCgfk7g6-53">
          <mxGeometry relative="1" as="geometry" />
        </mxCell>
        <mxCell id="Pus0KtjVYWj6FCgfk7g6-63" value="BCM_VLAN_MAX_RULE_COMMANDS=16" style="edgeLabel;html=1;align=center;verticalAlign=middle;resizable=0;points=[];" vertex="1" connectable="0" parent="Pus0KtjVYWj6FCgfk7g6-62">
          <mxGeometry x="0.3679" y="2" relative="1" as="geometry">
            <mxPoint x="-2" y="23" as="offset" />
          </mxGeometry>
        </mxCell>
        <mxCell id="3zwZ1igshFTEWLrj1TiS-1" value="realDeviceControl" style="swimlane;fontStyle=1;align=center;verticalAlign=top;childLayout=stackLayout;horizontal=1;startSize=26;horizontalStack=0;resizeParent=1;resizeParentMax=0;resizeLast=0;collapsible=1;marginBottom=0;whiteSpace=wrap;html=1;fillColor=#1ba1e2;strokeColor=#006EAF;fontColor=#ffffff;" vertex="1" parent="1">
          <mxGeometry x="78" y="11" width="160" height="206" as="geometry" />
        </mxCell>
        <mxCell id="3zwZ1igshFTEWLrj1TiS-2" value="realDev" style="text;strokeColor=#6c8ebf;fillColor=#dae8fc;align=left;verticalAlign=top;spacingLeft=4;spacingRight=4;overflow=hidden;rotatable=0;points=[[0,0.5],[1,0.5]];portConstraint=eastwest;whiteSpace=wrap;html=1;" vertex="1" parent="3zwZ1igshFTEWLrj1TiS-1">
          <mxGeometry y="26" width="160" height="26" as="geometry" />
        </mxCell>
        <mxCell id="3zwZ1igshFTEWLrj1TiS-3" value="ruleTable[2][5]" style="text;align=left;verticalAlign=top;spacingLeft=4;spacingRight=4;overflow=hidden;rotatable=0;points=[[0,0.5],[1,0.5]];portConstraint=eastwest;whiteSpace=wrap;html=1;fillColor=#dae8fc;strokeColor=#6c8ebf;" vertex="1" parent="3zwZ1igshFTEWLrj1TiS-1">
          <mxGeometry y="52" width="160" height="26" as="geometry" />
        </mxCell>
        <mxCell id="3zwZ1igshFTEWLrj1TiS-4" value="dscpToPbits[64]" style="text;strokeColor=#6c8ebf;fillColor=#dae8fc;align=left;verticalAlign=top;spacingLeft=4;spacingRight=4;overflow=hidden;rotatable=0;points=[[0,0.5],[1,0.5]];portConstraint=eastwest;whiteSpace=wrap;html=1;" vertex="1" parent="3zwZ1igshFTEWLrj1TiS-1">
          <mxGeometry y="78" width="160" height="24" as="geometry" />
        </mxCell>
        <mxCell id="3zwZ1igshFTEWLrj1TiS-5" value="tpidTable[4]" style="text;strokeColor=#6c8ebf;fillColor=#dae8fc;align=left;verticalAlign=top;spacingLeft=4;spacingRight=4;overflow=hidden;rotatable=0;points=[[0,0.5],[1,0.5]];portConstraint=eastwest;whiteSpace=wrap;html=1;" vertex="1" parent="3zwZ1igshFTEWLrj1TiS-1">
          <mxGeometry y="102" width="160" height="26" as="geometry" />
        </mxCell>
        <mxCell id="3zwZ1igshFTEWLrj1TiS-6" value="localStats" style="text;strokeColor=#6c8ebf;fillColor=#dae8fc;align=left;verticalAlign=top;spacingLeft=4;spacingRight=4;overflow=hidden;rotatable=0;points=[[0,0.5],[1,0.5]];portConstraint=eastwest;whiteSpace=wrap;html=1;" vertex="1" parent="3zwZ1igshFTEWLrj1TiS-1">
          <mxGeometry y="128" width="160" height="26" as="geometry" />
        </mxCell>
        <mxCell id="3zwZ1igshFTEWLrj1TiS-7" value="mode(ONT/RG)" style="text;strokeColor=#6c8ebf;fillColor=#dae8fc;align=left;verticalAlign=top;spacingLeft=4;spacingRight=4;overflow=hidden;rotatable=0;points=[[0,0.5],[1,0.5]];portConstraint=eastwest;whiteSpace=wrap;html=1;" vertex="1" parent="3zwZ1igshFTEWLrj1TiS-1">
          <mxGeometry y="154" width="160" height="26" as="geometry" />
        </mxCell>
        <mxCell id="3zwZ1igshFTEWLrj1TiS-8" value="vlanDevCtrlLL" style="text;strokeColor=#d79b00;fillColor=#ffe6cc;align=left;verticalAlign=top;spacingLeft=4;spacingRight=4;overflow=hidden;rotatable=0;points=[[0,0.5],[1,0.5]];portConstraint=eastwest;whiteSpace=wrap;html=1;" vertex="1" parent="3zwZ1igshFTEWLrj1TiS-1">
          <mxGeometry y="180" width="160" height="26" as="geometry" />
        </mxCell>
        <mxCell id="3zwZ1igshFTEWLrj1TiS-9" value="vlanDeviceControl" style="swimlane;fontStyle=1;align=center;verticalAlign=top;childLayout=stackLayout;horizontal=1;startSize=26;horizontalStack=0;resizeParent=1;resizeParentMax=0;resizeLast=0;collapsible=1;marginBottom=0;whiteSpace=wrap;html=1;fillColor=#1ba1e2;strokeColor=#006EAF;fontColor=#ffffff;" vertex="1" parent="1">
          <mxGeometry x="358" y="89" width="160" height="128" as="geometry" />
        </mxCell>
        <mxCell id="3zwZ1igshFTEWLrj1TiS-10" value="vlanDev(net_device::name)" style="text;strokeColor=#6c8ebf;fillColor=#dae8fc;align=left;verticalAlign=top;spacingLeft=4;spacingRight=4;overflow=hidden;rotatable=0;points=[[0,0.5],[1,0.5]];portConstraint=eastwest;whiteSpace=wrap;html=1;" vertex="1" parent="3zwZ1igshFTEWLrj1TiS-9">
          <mxGeometry y="26" width="160" height="26" as="geometry" />
        </mxCell>
        <mxCell id="3zwZ1igshFTEWLrj1TiS-11" value="realDevCtrl" style="text;align=left;verticalAlign=top;spacingLeft=4;spacingRight=4;overflow=hidden;rotatable=0;points=[[0,0.5],[1,0.5]];portConstraint=eastwest;whiteSpace=wrap;html=1;fillColor=#dae8fc;strokeColor=#6c8ebf;" vertex="1" parent="3zwZ1igshFTEWLrj1TiS-9">
          <mxGeometry y="52" width="160" height="26" as="geometry" />
        </mxCell>
        <mxCell id="3zwZ1igshFTEWLrj1TiS-12" value="flags" style="text;strokeColor=#6c8ebf;fillColor=#dae8fc;align=left;verticalAlign=top;spacingLeft=4;spacingRight=4;overflow=hidden;rotatable=0;points=[[0,0.5],[1,0.5]];portConstraint=eastwest;whiteSpace=wrap;html=1;" vertex="1" parent="3zwZ1igshFTEWLrj1TiS-9">
          <mxGeometry y="78" width="160" height="24" as="geometry" />
        </mxCell>
        <mxCell id="3zwZ1igshFTEWLrj1TiS-13" value="vlanDevCtrlLL" style="text;strokeColor=#d79b00;fillColor=#ffe6cc;align=left;verticalAlign=top;spacingLeft=4;spacingRight=4;overflow=hidden;rotatable=0;points=[[0,0.5],[1,0.5]];portConstraint=eastwest;whiteSpace=wrap;html=1;" vertex="1" parent="3zwZ1igshFTEWLrj1TiS-9">
          <mxGeometry y="102" width="160" height="26" as="geometry" />
        </mxCell>
        <mxCell id="3zwZ1igshFTEWLrj1TiS-14" value="vlanDeviceControl" style="swimlane;fontStyle=1;align=center;verticalAlign=top;childLayout=stackLayout;horizontal=1;startSize=26;horizontalStack=0;resizeParent=1;resizeParentMax=0;resizeLast=0;collapsible=1;marginBottom=0;whiteSpace=wrap;html=1;fillColor=#1ba1e2;strokeColor=#006EAF;fontColor=#ffffff;" vertex="1" parent="1">
          <mxGeometry x="598" y="89" width="160" height="128" as="geometry" />
        </mxCell>
        <mxCell id="3zwZ1igshFTEWLrj1TiS-15" value="vlanDev(net_device)" style="text;strokeColor=#6c8ebf;fillColor=#dae8fc;align=left;verticalAlign=top;spacingLeft=4;spacingRight=4;overflow=hidden;rotatable=0;points=[[0,0.5],[1,0.5]];portConstraint=eastwest;whiteSpace=wrap;html=1;" vertex="1" parent="3zwZ1igshFTEWLrj1TiS-14">
          <mxGeometry y="26" width="160" height="26" as="geometry" />
        </mxCell>
        <mxCell id="3zwZ1igshFTEWLrj1TiS-16" value="realDevCtrl" style="text;align=left;verticalAlign=top;spacingLeft=4;spacingRight=4;overflow=hidden;rotatable=0;points=[[0,0.5],[1,0.5]];portConstraint=eastwest;whiteSpace=wrap;html=1;fillColor=#dae8fc;strokeColor=#6c8ebf;" vertex="1" parent="3zwZ1igshFTEWLrj1TiS-14">
          <mxGeometry y="52" width="160" height="26" as="geometry" />
        </mxCell>
        <mxCell id="3zwZ1igshFTEWLrj1TiS-17" value="flags" style="text;strokeColor=#6c8ebf;fillColor=#dae8fc;align=left;verticalAlign=top;spacingLeft=4;spacingRight=4;overflow=hidden;rotatable=0;points=[[0,0.5],[1,0.5]];portConstraint=eastwest;whiteSpace=wrap;html=1;" vertex="1" parent="3zwZ1igshFTEWLrj1TiS-14">
          <mxGeometry y="78" width="160" height="24" as="geometry" />
        </mxCell>
        <mxCell id="3zwZ1igshFTEWLrj1TiS-18" value="vlanDevCtrlLL" style="text;strokeColor=#d79b00;fillColor=#ffe6cc;align=left;verticalAlign=top;spacingLeft=4;spacingRight=4;overflow=hidden;rotatable=0;points=[[0,0.5],[1,0.5]];portConstraint=eastwest;whiteSpace=wrap;html=1;" vertex="1" parent="3zwZ1igshFTEWLrj1TiS-14">
          <mxGeometry y="102" width="160" height="26" as="geometry" />
        </mxCell>
        <mxCell id="3zwZ1igshFTEWLrj1TiS-19" value="" style="edgeStyle=orthogonalEdgeStyle;rounded=0;orthogonalLoop=1;jettySize=auto;html=1;" edge="1" parent="1" source="3zwZ1igshFTEWLrj1TiS-13" target="3zwZ1igshFTEWLrj1TiS-18">
          <mxGeometry relative="1" as="geometry" />
        </mxCell>
        <mxCell id="3zwZ1igshFTEWLrj1TiS-20" style="edgeStyle=orthogonalEdgeStyle;rounded=0;orthogonalLoop=1;jettySize=auto;html=1;entryX=1;entryY=0.049;entryDx=0;entryDy=0;entryPerimeter=0;" edge="1" parent="1" source="3zwZ1igshFTEWLrj1TiS-11" target="3zwZ1igshFTEWLrj1TiS-1">
          <mxGeometry relative="1" as="geometry" />
        </mxCell>
      </root>
    </mxGraphModel>
  </diagram>
  <diagram id="dtp6LlPuf77RQX8vfSrV" name="Page-4">
    <mxGraphModel dx="1320" dy="743" grid="1" gridSize="10" guides="1" tooltips="1" connect="1" arrows="1" fold="1" page="1" pageScale="1" pageWidth="850" pageHeight="1100" math="0" shadow="0">
      <root>
        <mxCell id="0" />
        <mxCell id="1" parent="0" />
        <mxCell id="Vae0gQRt0uQh1_OzyPt7-7" style="edgeStyle=orthogonalEdgeStyle;rounded=0;orthogonalLoop=1;jettySize=auto;html=1;exitX=0.5;exitY=1;exitDx=0;exitDy=0;" edge="1" parent="1" source="MB5WddD4CjVc1z_3C1d5-1">
          <mxGeometry relative="1" as="geometry">
            <mxPoint x="425" y="190" as="targetPoint" />
          </mxGeometry>
        </mxCell>
        <mxCell id="MB5WddD4CjVc1z_3C1d5-1" value="parseFrameHeader" style="rounded=1;whiteSpace=wrap;html=1;fillColor=#dae8fc;strokeColor=#6c8ebf;" vertex="1" parent="1">
          <mxGeometry x="330" y="125" width="190" height="40" as="geometry" />
        </mxCell>
        <mxCell id="MB5WddD4CjVc1z_3C1d5-3" value="Multicast and&amp;nbsp;&lt;div&gt;BCM_VLAN_MODE_RG&amp;nbsp;&lt;/div&gt;" style="rhombus;whiteSpace=wrap;html=1;fontColor=#000000;fillColor=#ffffc0;strokeColor=#ff0000;" vertex="1" parent="1">
          <mxGeometry x="320" y="192" width="210" height="80" as="geometry" />
        </mxCell>
        <mxCell id="MB5WddD4CjVc1z_3C1d5-4" value="" style="edgeStyle=orthogonalEdgeStyle;html=1;align=left;verticalAlign=bottom;endArrow=open;endSize=8;strokeColor=#ff0000;rounded=0;" edge="1" parent="1">
          <mxGeometry x="-0.8333" y="10" relative="1" as="geometry">
            <mxPoint x="580" y="232" as="targetPoint" />
            <mxPoint as="offset" />
            <mxPoint x="529" y="232" as="sourcePoint" />
          </mxGeometry>
        </mxCell>
        <mxCell id="MB5WddD4CjVc1z_3C1d5-5" value="yes" style="edgeLabel;html=1;align=center;verticalAlign=middle;resizable=0;points=[];" vertex="1" connectable="0" parent="MB5WddD4CjVc1z_3C1d5-4">
          <mxGeometry x="-0.85" y="12" relative="1" as="geometry">
            <mxPoint as="offset" />
          </mxGeometry>
        </mxCell>
        <mxCell id="MB5WddD4CjVc1z_3C1d5-6" value="no" style="edgeStyle=orthogonalEdgeStyle;html=1;align=left;verticalAlign=top;endArrow=open;endSize=8;strokeColor=#ff0000;rounded=0;entryX=0.488;entryY=-0.015;entryDx=0;entryDy=0;entryPerimeter=0;" edge="1" parent="1" target="Pya2PWu8NjKXXxLi4X7T-4">
          <mxGeometry x="-1" relative="1" as="geometry">
            <mxPoint x="423" y="290" as="targetPoint" />
            <mxPoint x="423" y="270" as="sourcePoint" />
            <Array as="points" />
          </mxGeometry>
        </mxCell>
        <mxCell id="MB5WddD4CjVc1z_3C1d5-7" value="bcmVlan_processRxMulticastRG" style="rounded=1;whiteSpace=wrap;html=1;fillColor=#dae8fc;strokeColor=#6c8ebf;" vertex="1" parent="1">
          <mxGeometry x="581" y="212" width="190" height="40" as="geometry" />
        </mxCell>
        <mxCell id="Pya2PWu8NjKXXxLi4X7T-4" value="build&amp;nbsp;qosTableEntry_p" style="shape=umlFrame;whiteSpace=wrap;html=1;pointerEvents=0;width=160;height=40;fillColor=#f8cecc;strokeColor=#b85450;" vertex="1" parent="1">
          <mxGeometry x="218" y="309" width="420" height="203" as="geometry" />
        </mxCell>
        <mxCell id="Pya2PWu8NjKXXxLi4X7T-5" value="&lt;div style=&quot;line-height: 150%;&quot;&gt;&lt;p style=&quot;margin: 4px 0px 0px; text-align: center; text-decoration: underline;&quot;&gt;&lt;b&gt;Condition&lt;/b&gt;&lt;/p&gt;&lt;hr size=&quot;1&quot; style=&quot;border-style:solid;&quot;&gt;&lt;p style=&quot;margin:0px;margin-left:8px;&quot;&gt;&lt;/p&gt;&lt;ol&gt;&lt;li&gt;&lt;span style=&quot;background-color: transparent; color: light-dark(rgb(0, 0, 0), rgb(255, 255, 255));&quot;&gt;loop ruleTable[tableDir][cmdInfo.nbrOfTags]&lt;/span&gt;&lt;/li&gt;&lt;li&gt;&lt;span style=&quot;background-color: transparent; color: light-dark(rgb(0, 0, 0), rgb(255, 255, 255));&quot;&gt;tagRule.type:&amp;nbsp;BCM_VLAN_RULE_TYPE_QOS&lt;/span&gt;&lt;/li&gt;&lt;li&gt;&lt;span style=&quot;background-color: transparent; color: light-dark(rgb(0, 0, 0), rgb(255, 255, 255));&quot;&gt;tagRuleMatch&lt;/span&gt;&lt;/li&gt;&lt;li&gt;loop end when tagRule.cmd[i].opCode not equal to&amp;nbsp;&amp;nbsp;BCM_VLAN_OPCODE_CONTINUE&lt;/li&gt;&lt;/ol&gt;&lt;/div&gt;" style="verticalAlign=top;align=left;overflow=fill;html=1;whiteSpace=wrap;fillColor=#dae8fc;strokeColor=#6c8ebf;" vertex="1" parent="1">
          <mxGeometry x="253" y="362" width="350" height="135" as="geometry" />
        </mxCell>
        <mxCell id="Pya2PWu8NjKXXxLi4X7T-6" value="loop&amp;nbsp;ruleTable-&amp;gt;tableEntryLL" style="shape=umlFrame;whiteSpace=wrap;html=1;pointerEvents=0;width=194;height=30;fillColor=#f8cecc;strokeColor=#b85450;" vertex="1" parent="1">
          <mxGeometry x="218" y="559" width="420" height="230" as="geometry" />
        </mxCell>
        <mxCell id="Pya2PWu8NjKXXxLi4X7T-7" value="&lt;p style=&quot;margin:0px;margin-top:4px;text-align:center;text-decoration:underline;&quot;&gt;&lt;b&gt;Condition&amp;nbsp; &amp;nbsp;(set match=1 when satisfied)&lt;/b&gt;&lt;/p&gt;&lt;hr size=&quot;1&quot; style=&quot;border-style:solid;&quot;&gt;&lt;p style=&quot;margin:0px;margin-left:8px;&quot;&gt;&lt;/p&gt;&lt;ol&gt;&lt;li&gt;tagRule.type:&amp;nbsp;BCM_VLAN_RULE_TYPE_FLOW&lt;/li&gt;&lt;li&gt;tagRuleMatch&lt;br&gt;&lt;/li&gt;&lt;/ol&gt;" style="verticalAlign=top;align=left;overflow=fill;html=1;whiteSpace=wrap;fillColor=#dae8fc;strokeColor=#6c8ebf;" vertex="1" parent="1">
          <mxGeometry x="235.5" y="599" width="385" height="80" as="geometry" />
        </mxCell>
        <mxCell id="Pya2PWu8NjKXXxLi4X7T-8" value="loop tagRule.cmd[]" style="shape=umlFrame;whiteSpace=wrap;html=1;pointerEvents=0;width=140;height=30;fillColor=#e1d5e7;strokeColor=#9673a6;" vertex="1" parent="1">
          <mxGeometry x="278" y="699" width="300" height="80" as="geometry" />
        </mxCell>
        <mxCell id="Pya2PWu8NjKXXxLi4X7T-9" value="&lt;div style=&quot;line-height: 140%;&quot;&gt;Execute cmd when cmd[i].type !=&amp;nbsp;&lt;div&gt;BCM_VLAN_OPCODE_CONTINUE&amp;nbsp;&lt;/div&gt;&lt;/div&gt;" style="text;html=1;align=center;verticalAlign=middle;resizable=0;points=[];autosize=1;strokeColor=none;fillColor=none;spacing=3;" vertex="1" parent="1">
          <mxGeometry x="318" y="724" width="220" height="50" as="geometry" />
        </mxCell>
        <mxCell id="Vae0gQRt0uQh1_OzyPt7-10" style="edgeStyle=orthogonalEdgeStyle;rounded=0;orthogonalLoop=1;jettySize=auto;html=1;entryX=0.5;entryY=0;entryDx=0;entryDy=0;" edge="1" parent="1" source="Pya2PWu8NjKXXxLi4X7T-10" target="Pya2PWu8NjKXXxLi4X7T-17">
          <mxGeometry relative="1" as="geometry" />
        </mxCell>
        <mxCell id="Pya2PWu8NjKXXxLi4X7T-10" value="loop qosTableEntry_p" style="shape=umlFrame;whiteSpace=wrap;html=1;pointerEvents=0;width=144;height=40;fillColor=#f8cecc;strokeColor=#b85450;" vertex="1" parent="1">
          <mxGeometry x="218" y="832" width="420" height="200" as="geometry" />
        </mxCell>
        <mxCell id="Pya2PWu8NjKXXxLi4X7T-11" value="loop tagRule.cmd[]" style="shape=umlFrame;whiteSpace=wrap;html=1;pointerEvents=0;width=140;height=30;fillColor=#e1d5e7;strokeColor=#9673a6;" vertex="1" parent="1">
          <mxGeometry x="254" y="892" width="348" height="120" as="geometry" />
        </mxCell>
        <mxCell id="Pya2PWu8NjKXXxLi4X7T-12" value="&lt;div&gt;&lt;br&gt;&lt;/div&gt;Execute cmd when cmd[i].type !=&lt;div&gt;&lt;br&gt;&lt;div&gt;BCM_VLAN_OPCODE_CONTINUE&amp;nbsp;&lt;/div&gt;&lt;div&gt;and&lt;/div&gt;&lt;div&gt;BCM_VLAN_OPCODE_DROP_FRAME&amp;nbsp;&lt;/div&gt;&lt;/div&gt;" style="text;html=1;align=center;verticalAlign=middle;resizable=0;points=[];autosize=1;strokeColor=none;fillColor=none;" vertex="1" parent="1">
          <mxGeometry x="308" y="912" width="240" height="100" as="geometry" />
        </mxCell>
        <mxCell id="XbA2rC6fk8iUyTDwjmVF-5" style="edgeStyle=orthogonalEdgeStyle;rounded=0;orthogonalLoop=1;jettySize=auto;html=1;exitX=0.5;exitY=1;exitDx=0;exitDy=0;" edge="1" parent="1" source="Pya2PWu8NjKXXxLi4X7T-17" target="Pya2PWu8NjKXXxLi4X7T-22">
          <mxGeometry relative="1" as="geometry" />
        </mxCell>
        <mxCell id="Pya2PWu8NjKXXxLi4X7T-17" value="ruleTable-&amp;gt;defaultAction&lt;br&gt;or&lt;br&gt;is_mcast_bcast_packet_for_default_drop_action" style="rhombus;whiteSpace=wrap;html=1;fontColor=#000000;fillColor=#ffffc0;strokeColor=light-dark(#141414, #017070);" vertex="1" parent="1">
          <mxGeometry x="248" y="1060" width="360" height="120" as="geometry" />
        </mxCell>
        <mxCell id="Pya2PWu8NjKXXxLi4X7T-18" value="Drop" style="edgeStyle=orthogonalEdgeStyle;html=1;align=left;verticalAlign=bottom;endArrow=open;endSize=8;strokeColor=#ff0000;rounded=0;entryX=0.5;entryY=0;entryDx=0;entryDy=0;" edge="1" source="Pya2PWu8NjKXXxLi4X7T-17" parent="1" target="Pya2PWu8NjKXXxLi4X7T-21">
          <mxGeometry x="-1" relative="1" as="geometry">
            <mxPoint x="557" y="1250" as="targetPoint" />
            <Array as="points">
              <mxPoint x="745" y="1120" />
            </Array>
          </mxGeometry>
        </mxCell>
        <mxCell id="Pya2PWu8NjKXXxLi4X7T-21" value="cmdHandler_dropFrame" style="rounded=1;whiteSpace=wrap;html=1;fillColor=#dae8fc;strokeColor=#6c8ebf;" vertex="1" parent="1">
          <mxGeometry x="650" y="1210" width="190" height="40" as="geometry" />
        </mxCell>
        <mxCell id="XbA2rC6fk8iUyTDwjmVF-6" value="" style="edgeStyle=orthogonalEdgeStyle;rounded=0;orthogonalLoop=1;jettySize=auto;html=1;entryX=0.521;entryY=-0.022;entryDx=0;entryDy=0;entryPerimeter=0;" edge="1" parent="1" source="Pya2PWu8NjKXXxLi4X7T-22" target="Pya2PWu8NjKXXxLi4X7T-24">
          <mxGeometry relative="1" as="geometry" />
        </mxCell>
        <mxCell id="XbA2rC6fk8iUyTDwjmVF-9" style="edgeStyle=orthogonalEdgeStyle;rounded=0;orthogonalLoop=1;jettySize=auto;html=1;entryX=0.568;entryY=1.025;entryDx=0;entryDy=0;entryPerimeter=0;strokeColor=#FF440B;" edge="1" parent="1" source="Pya2PWu8NjKXXxLi4X7T-22" target="Pya2PWu8NjKXXxLi4X7T-21">
          <mxGeometry relative="1" as="geometry">
            <mxPoint x="630" y="1280" as="targetPoint" />
          </mxGeometry>
        </mxCell>
        <mxCell id="Pya2PWu8NjKXXxLi4X7T-22" value="RX&amp;nbsp;&lt;div&gt;&amp;nbsp;BCM_VLAN_MODE_RG&lt;/div&gt;" style="shape=umlFrame;whiteSpace=wrap;html=1;pointerEvents=0;width=170;height=40;fillColor=#f8cecc;strokeColor=#b85450;" vertex="1" parent="1">
          <mxGeometry x="278" y="1230" width="340" height="100" as="geometry" />
        </mxCell>
        <mxCell id="Pya2PWu8NjKXXxLi4X7T-23" value="If route or mac address is not matched&lt;div&gt;&lt;br&gt;&lt;/div&gt;" style="text;html=1;align=center;verticalAlign=middle;resizable=0;points=[];autosize=1;strokeColor=none;fillColor=none;" vertex="1" parent="1">
          <mxGeometry x="336" y="1283" width="230" height="40" as="geometry" />
        </mxCell>
        <mxCell id="XbA2rC6fk8iUyTDwjmVF-10" style="edgeStyle=orthogonalEdgeStyle;rounded=0;orthogonalLoop=1;jettySize=auto;html=1;" edge="1" parent="1" source="Pya2PWu8NjKXXxLi4X7T-24">
          <mxGeometry relative="1" as="geometry">
            <mxPoint x="740" y="1470" as="targetPoint" />
          </mxGeometry>
        </mxCell>
        <mxCell id="Vae0gQRt0uQh1_OzyPt7-13" style="edgeStyle=orthogonalEdgeStyle;rounded=0;orthogonalLoop=1;jettySize=auto;html=1;entryX=0.5;entryY=0;entryDx=0;entryDy=0;" edge="1" parent="1" source="Pya2PWu8NjKXXxLi4X7T-24" target="Vae0gQRt0uQh1_OzyPt7-2">
          <mxGeometry relative="1" as="geometry" />
        </mxCell>
        <mxCell id="Pya2PWu8NjKXXxLi4X7T-24" value="RX&amp;nbsp;&lt;div&gt;&amp;nbsp;BCM_VLAN_MODE_ONT&lt;/div&gt;" style="shape=umlFrame;whiteSpace=wrap;html=1;pointerEvents=0;width=170;height=40;fillColor=#f8cecc;strokeColor=#b85450;" vertex="1" parent="1">
          <mxGeometry x="278" y="1370" width="340" height="90" as="geometry" />
        </mxCell>
        <mxCell id="Pya2PWu8NjKXXxLi4X7T-25" value="If multicast" style="text;html=1;align=center;verticalAlign=middle;resizable=0;points=[];autosize=1;strokeColor=none;fillColor=none;" vertex="1" parent="1">
          <mxGeometry x="408" y="1420" width="80" height="30" as="geometry" />
        </mxCell>
        <mxCell id="Pya2PWu8NjKXXxLi4X7T-26" value="forwardMulticast" style="rounded=1;whiteSpace=wrap;html=1;fillColor=#dae8fc;strokeColor=#6c8ebf;" vertex="1" parent="1">
          <mxGeometry x="638" y="1470" width="190" height="40" as="geometry" />
        </mxCell>
        <mxCell id="Vae0gQRt0uQh1_OzyPt7-6" style="edgeStyle=orthogonalEdgeStyle;rounded=0;orthogonalLoop=1;jettySize=auto;html=1;exitX=0.5;exitY=1;exitDx=0;exitDy=0;" edge="1" parent="1" source="XbA2rC6fk8iUyTDwjmVF-1">
          <mxGeometry relative="1" as="geometry">
            <mxPoint x="425" y="120" as="targetPoint" />
          </mxGeometry>
        </mxCell>
        <mxCell id="Vae0gQRt0uQh1_OzyPt7-17" style="edgeStyle=orthogonalEdgeStyle;rounded=0;orthogonalLoop=1;jettySize=auto;html=1;entryX=0;entryY=0.5;entryDx=0;entryDy=0;" edge="1" parent="1" source="XbA2rC6fk8iUyTDwjmVF-1" target="Vae0gQRt0uQh1_OzyPt7-4">
          <mxGeometry relative="1" as="geometry" />
        </mxCell>
        <mxCell id="XbA2rC6fk8iUyTDwjmVF-1" value="bcmVlan_processFrame" style="rounded=1;whiteSpace=wrap;html=1;fillColor=#dae8fc;strokeColor=#6c8ebf;" vertex="1" parent="1">
          <mxGeometry x="330" y="45" width="190" height="40" as="geometry" />
        </mxCell>
        <mxCell id="Vae0gQRt0uQh1_OzyPt7-5" style="edgeStyle=orthogonalEdgeStyle;rounded=0;orthogonalLoop=1;jettySize=auto;html=1;entryX=0;entryY=0.5;entryDx=0;entryDy=0;" edge="1" parent="1" source="XbA2rC6fk8iUyTDwjmVF-2" target="XbA2rC6fk8iUyTDwjmVF-1">
          <mxGeometry relative="1" as="geometry" />
        </mxCell>
        <mxCell id="XbA2rC6fk8iUyTDwjmVF-2" value="&lt;span style=&quot;&quot;&gt;&lt;b&gt;&lt;font style=&quot;font-size: 13px;&quot;&gt;bcm_vlan_handle_frame_hook&lt;/font&gt;&lt;/b&gt;&lt;/span&gt;" style="swimlane;whiteSpace=wrap;html=1;startSize=23;fontStyle=0;fillColor=#ffe6cc;strokeColor=#d79b00;" vertex="1" parent="1">
          <mxGeometry x="15" y="30" width="240" height="70" as="geometry" />
        </mxCell>
        <mxCell id="XbA2rC6fk8iUyTDwjmVF-3" value="bcmVlan_devReceiveSkb" style="text;html=1;align=center;verticalAlign=middle;resizable=0;points=[];autosize=1;strokeColor=none;fillColor=none;" vertex="1" parent="XbA2rC6fk8iUyTDwjmVF-2">
          <mxGeometry x="40" y="30" width="160" height="30" as="geometry" />
        </mxCell>
        <mxCell id="Vae0gQRt0uQh1_OzyPt7-15" style="edgeStyle=orthogonalEdgeStyle;rounded=0;orthogonalLoop=1;jettySize=auto;html=1;entryX=0.5;entryY=0;entryDx=0;entryDy=0;" edge="1" parent="1" source="Vae0gQRt0uQh1_OzyPt7-2" target="Vae0gQRt0uQh1_OzyPt7-3">
          <mxGeometry relative="1" as="geometry" />
        </mxCell>
        <mxCell id="Vae0gQRt0uQh1_OzyPt7-2" value="&lt;p style=&quot;margin: 4px 0px 0px; text-align: center;&quot;&gt;&lt;b&gt;&lt;u&gt;rxVlanDevInStackp&lt;/u&gt;&lt;/b&gt;&lt;/p&gt;&lt;hr size=&quot;1&quot; style=&quot;border-style:solid;&quot;&gt;&lt;p style=&quot;margin:0px;margin-left:8px;&quot;&gt;&lt;/p&gt;&lt;ul style=&quot;line-height: 160%;&quot;&gt;&lt;li&gt;&lt;span style=&quot;background-color: transparent; color: light-dark(rgb(0, 0, 0), rgb(255, 255, 255));&quot;&gt;RX and Multicast and RG, set&amp;nbsp;&amp;nbsp;&lt;/span&gt;&lt;b style=&quot;background-color: transparent; color: light-dark(rgb(0, 0, 0), rgb(255, 255, 255)); text-align: center;&quot;&gt;&lt;u&gt;rxVlanDevInStackp = 1&lt;/u&gt;&lt;/b&gt;&lt;/li&gt;&lt;li&gt;&lt;span style=&quot;background-color: transparent; color: light-dark(rgb(0, 0, 0), rgb(255, 255, 255));&quot;&gt;update&amp;nbsp;rxVlanDevInStackp according to whether skd-&amp;gt;dev in realDeviceCtrl list&amp;nbsp;&lt;/span&gt;&lt;/li&gt;&lt;/ul&gt;&lt;p&gt;&lt;/p&gt;" style="verticalAlign=top;align=left;overflow=fill;html=1;whiteSpace=wrap;fillColor=#dae8fc;strokeColor=#6c8ebf;" vertex="1" parent="1">
          <mxGeometry x="280" y="1490" width="340" height="140" as="geometry" />
        </mxCell>
        <mxCell id="Vae0gQRt0uQh1_OzyPt7-3" value="return" style="ellipse;whiteSpace=wrap;html=1;" vertex="1" parent="1">
          <mxGeometry x="385" y="1660" width="130" height="60" as="geometry" />
        </mxCell>
        <mxCell id="Vae0gQRt0uQh1_OzyPt7-4" value="Output" style="ellipse;shape=umlEntity;whiteSpace=wrap;html=1;" vertex="1" parent="1">
          <mxGeometry x="640" y="25" width="80" height="80" as="geometry" />
        </mxCell>
        <mxCell id="Vae0gQRt0uQh1_OzyPt7-8" style="edgeStyle=orthogonalEdgeStyle;rounded=0;orthogonalLoop=1;jettySize=auto;html=1;entryX=0.502;entryY=0.013;entryDx=0;entryDy=0;entryPerimeter=0;" edge="1" parent="1" source="Pya2PWu8NjKXXxLi4X7T-4" target="Pya2PWu8NjKXXxLi4X7T-6">
          <mxGeometry relative="1" as="geometry" />
        </mxCell>
        <mxCell id="Vae0gQRt0uQh1_OzyPt7-9" style="edgeStyle=orthogonalEdgeStyle;rounded=0;orthogonalLoop=1;jettySize=auto;html=1;entryX=0.5;entryY=-0.01;entryDx=0;entryDy=0;entryPerimeter=0;" edge="1" parent="1" source="Pya2PWu8NjKXXxLi4X7T-6" target="Pya2PWu8NjKXXxLi4X7T-10">
          <mxGeometry relative="1" as="geometry" />
        </mxCell>
        <mxCell id="gXJjUkV9zJUK41BV2gy0-6" style="edgeStyle=orthogonalEdgeStyle;rounded=0;orthogonalLoop=1;jettySize=auto;html=1;exitX=0.5;exitY=1;exitDx=0;exitDy=0;entryX=0.5;entryY=0;entryDx=0;entryDy=0;" edge="1" parent="1" source="Vae0gQRt0uQh1_OzyPt7-18" target="LdreibOVzoClaCLyuegR-1">
          <mxGeometry relative="1" as="geometry" />
        </mxCell>
        <mxCell id="Vae0gQRt0uQh1_OzyPt7-18" value="Output" style="ellipse;shape=umlEntity;whiteSpace=wrap;html=1;" vertex="1" parent="1">
          <mxGeometry x="60" y="165" width="80" height="80" as="geometry" />
        </mxCell>
        <mxCell id="gXJjUkV9zJUK41BV2gy0-7" style="edgeStyle=orthogonalEdgeStyle;rounded=0;orthogonalLoop=1;jettySize=auto;html=1;entryX=0.5;entryY=0;entryDx=0;entryDy=0;" edge="1" parent="1" source="LdreibOVzoClaCLyuegR-1" target="gXJjUkV9zJUK41BV2gy0-1">
          <mxGeometry relative="1" as="geometry" />
        </mxCell>
        <mxCell id="LdreibOVzoClaCLyuegR-1" value="update rx/tx statistics" style="shape=process;whiteSpace=wrap;html=1;backgroundOutline=1;fillColor=#f8cecc;strokeColor=#b85450;" vertex="1" parent="1">
          <mxGeometry x="10" y="270" width="180" height="40" as="geometry" />
        </mxCell>
        <mxCell id="gXJjUkV9zJUK41BV2gy0-1" value="&lt;b&gt;&lt;u&gt;rxVlanDevInStackp&lt;/u&gt;&lt;/b&gt;" style="rhombus;whiteSpace=wrap;html=1;fontColor=#000000;fillColor=#ffffc0;strokeColor=#ff0000;" vertex="1" parent="1">
          <mxGeometry x="10" y="330" width="180" height="40" as="geometry" />
        </mxCell>
        <mxCell id="gXJjUkV9zJUK41BV2gy0-3" value="yes" style="edgeStyle=orthogonalEdgeStyle;html=1;align=left;verticalAlign=top;endArrow=open;endSize=8;strokeColor=#ff0000;rounded=0;entryX=0.5;entryY=0;entryDx=0;entryDy=0;" edge="1" parent="1" source="gXJjUkV9zJUK41BV2gy0-1" target="gXJjUkV9zJUK41BV2gy0-5">
          <mxGeometry x="-1" relative="1" as="geometry">
            <mxPoint x="100" y="480" as="targetPoint" />
          </mxGeometry>
        </mxCell>
        <mxCell id="gXJjUkV9zJUK41BV2gy0-4" value="End" style="ellipse;html=1;shape=endState;fillColor=#F6F6F6;strokeColor=light-dark(#0d0c0c, #017070);" vertex="1" parent="1">
          <mxGeometry x="50" y="480" width="100" height="40" as="geometry" />
        </mxCell>
        <mxCell id="gXJjUkV9zJUK41BV2gy0-8" style="edgeStyle=orthogonalEdgeStyle;rounded=0;orthogonalLoop=1;jettySize=auto;html=1;entryX=0.5;entryY=0;entryDx=0;entryDy=0;" edge="1" parent="1" source="gXJjUkV9zJUK41BV2gy0-5" target="gXJjUkV9zJUK41BV2gy0-4">
          <mxGeometry relative="1" as="geometry" />
        </mxCell>
        <mxCell id="gXJjUkV9zJUK41BV2gy0-5" value="netif_rx" style="rounded=1;whiteSpace=wrap;html=1;fillColor=#dae8fc;strokeColor=#6c8ebf;" vertex="1" parent="1">
          <mxGeometry x="30" y="409.5" width="140" height="40" as="geometry" />
        </mxCell>
      </root>
    </mxGraphModel>
  </diagram>
  <diagram name="Copy of Page-4" id="bPRkNKok3thPtaTcvesv">
    <mxGraphModel dx="1320" dy="743" grid="1" gridSize="10" guides="1" tooltips="1" connect="1" arrows="1" fold="1" page="1" pageScale="1" pageWidth="850" pageHeight="1100" math="0" shadow="0">
      <root>
        <mxCell id="8QHD-EmXQA5LtowCYumZ-0" />
        <mxCell id="8QHD-EmXQA5LtowCYumZ-1" parent="8QHD-EmXQA5LtowCYumZ-0" />
        <mxCell id="8QHD-EmXQA5LtowCYumZ-2" style="edgeStyle=orthogonalEdgeStyle;rounded=0;orthogonalLoop=1;jettySize=auto;html=1;exitX=0.5;exitY=1;exitDx=0;exitDy=0;entryX=0.5;entryY=0;entryDx=0;entryDy=0;" edge="1" parent="8QHD-EmXQA5LtowCYumZ-1" source="8QHD-EmXQA5LtowCYumZ-3" target="8QHD-EmXQA5LtowCYumZ-4">
          <mxGeometry relative="1" as="geometry">
            <mxPoint x="425" y="190" as="targetPoint" />
          </mxGeometry>
        </mxCell>
        <mxCell id="8QHD-EmXQA5LtowCYumZ-3" value="parseFrameHeader" style="rounded=1;whiteSpace=wrap;html=1;fillColor=#dae8fc;strokeColor=#6c8ebf;" vertex="1" parent="8QHD-EmXQA5LtowCYumZ-1">
          <mxGeometry x="330" y="107" width="190" height="40" as="geometry" />
        </mxCell>
        <mxCell id="8QHD-EmXQA5LtowCYumZ-4" value="Multicast and&amp;nbsp;&lt;div&gt;BCM_VLAN_MODE_RG&amp;nbsp;&lt;/div&gt;" style="rhombus;whiteSpace=wrap;html=1;fontColor=#000000;fillColor=#ffffc0;strokeColor=#ff0000;" vertex="1" parent="8QHD-EmXQA5LtowCYumZ-1">
          <mxGeometry x="320" y="163" width="210" height="80" as="geometry" />
        </mxCell>
        <mxCell id="8QHD-EmXQA5LtowCYumZ-5" value="" style="edgeStyle=orthogonalEdgeStyle;html=1;align=left;verticalAlign=bottom;endArrow=open;endSize=8;strokeColor=#ff0000;rounded=0;" edge="1" parent="8QHD-EmXQA5LtowCYumZ-1">
          <mxGeometry x="-0.8333" y="10" relative="1" as="geometry">
            <mxPoint x="580" y="203" as="targetPoint" />
            <mxPoint as="offset" />
            <mxPoint x="529" y="203" as="sourcePoint" />
          </mxGeometry>
        </mxCell>
        <mxCell id="8QHD-EmXQA5LtowCYumZ-6" value="yes" style="edgeLabel;html=1;align=center;verticalAlign=middle;resizable=0;points=[];" vertex="1" connectable="0" parent="8QHD-EmXQA5LtowCYumZ-5">
          <mxGeometry x="-0.85" y="12" relative="1" as="geometry">
            <mxPoint as="offset" />
          </mxGeometry>
        </mxCell>
        <mxCell id="8QHD-EmXQA5LtowCYumZ-7" value="no" style="edgeStyle=orthogonalEdgeStyle;html=1;align=left;verticalAlign=top;endArrow=open;endSize=8;strokeColor=#ff0000;rounded=0;" edge="1" parent="8QHD-EmXQA5LtowCYumZ-1">
          <mxGeometry x="-1" relative="1" as="geometry">
            <mxPoint x="424" y="264" as="targetPoint" />
            <mxPoint x="427" y="245" as="sourcePoint" />
            <Array as="points" />
          </mxGeometry>
        </mxCell>
        <mxCell id="8QHD-EmXQA5LtowCYumZ-8" value="bcmVlan_processRxMulticastRG" style="rounded=1;whiteSpace=wrap;html=1;fillColor=#dae8fc;strokeColor=#6c8ebf;" vertex="1" parent="8QHD-EmXQA5LtowCYumZ-1">
          <mxGeometry x="581" y="183" width="190" height="40" as="geometry" />
        </mxCell>
        <mxCell id="sFTiKNQOoEQJ8GIri2Ez-15" value="" style="edgeStyle=orthogonalEdgeStyle;rounded=0;orthogonalLoop=1;jettySize=auto;html=1;" edge="1" parent="8QHD-EmXQA5LtowCYumZ-1" source="8QHD-EmXQA5LtowCYumZ-9" target="sFTiKNQOoEQJ8GIri2Ez-13">
          <mxGeometry relative="1" as="geometry" />
        </mxCell>
        <mxCell id="8QHD-EmXQA5LtowCYumZ-9" value="build&amp;nbsp;qosTableEntry_p" style="shape=umlFrame;whiteSpace=wrap;html=1;pointerEvents=0;width=160;height=40;fillColor=#f8cecc;strokeColor=#b85450;" vertex="1" parent="8QHD-EmXQA5LtowCYumZ-1">
          <mxGeometry x="218" y="264" width="420" height="203" as="geometry" />
        </mxCell>
        <mxCell id="8QHD-EmXQA5LtowCYumZ-10" value="&lt;div style=&quot;line-height: 150%;&quot;&gt;&lt;p style=&quot;margin: 4px 0px 0px; text-align: center; text-decoration: underline;&quot;&gt;&lt;b&gt;Condition&lt;/b&gt;&lt;/p&gt;&lt;hr size=&quot;1&quot; style=&quot;border-style:solid;&quot;&gt;&lt;p style=&quot;margin:0px;margin-left:8px;&quot;&gt;&lt;/p&gt;&lt;ol&gt;&lt;li&gt;&lt;span style=&quot;background-color: transparent; color: light-dark(rgb(0, 0, 0), rgb(255, 255, 255));&quot;&gt;loop ruleTable[tableDir][cmdInfo.nbrOfTags]&lt;/span&gt;&lt;/li&gt;&lt;li&gt;&lt;span style=&quot;background-color: transparent; color: light-dark(rgb(0, 0, 0), rgb(255, 255, 255));&quot;&gt;tagRule.type:&amp;nbsp;BCM_VLAN_RULE_TYPE_QOS&lt;/span&gt;&lt;/li&gt;&lt;li&gt;&lt;span style=&quot;background-color: transparent; color: light-dark(rgb(0, 0, 0), rgb(255, 255, 255));&quot;&gt;tagRuleMatch&lt;/span&gt;&lt;/li&gt;&lt;li&gt;loop end when tagRule.cmd[i].opCode not equal to&amp;nbsp;&amp;nbsp;BCM_VLAN_OPCODE_CONTINUE&lt;/li&gt;&lt;/ol&gt;&lt;/div&gt;" style="verticalAlign=top;align=left;overflow=fill;html=1;whiteSpace=wrap;fillColor=#dae8fc;strokeColor=#6c8ebf;" vertex="1" parent="8QHD-EmXQA5LtowCYumZ-1">
          <mxGeometry x="253" y="317" width="350" height="135" as="geometry" />
        </mxCell>
        <mxCell id="8QHD-EmXQA5LtowCYumZ-11" value="loop&amp;nbsp;ruleTable-&amp;gt;tableEntryLL" style="shape=umlFrame;whiteSpace=wrap;html=1;pointerEvents=0;width=194;height=30;fillColor=#f8cecc;strokeColor=#b85450;" vertex="1" parent="8QHD-EmXQA5LtowCYumZ-1">
          <mxGeometry x="218" y="673" width="420" height="230" as="geometry" />
        </mxCell>
        <mxCell id="8QHD-EmXQA5LtowCYumZ-12" value="&lt;p style=&quot;margin:0px;margin-top:4px;text-align:center;text-decoration:underline;&quot;&gt;&lt;b&gt;Condition&amp;nbsp; &amp;nbsp;(set match=1 when satisfied)&lt;/b&gt;&lt;/p&gt;&lt;hr size=&quot;1&quot; style=&quot;border-style:solid;&quot;&gt;&lt;p style=&quot;margin:0px;margin-left:8px;&quot;&gt;&lt;/p&gt;&lt;ol&gt;&lt;li&gt;tagRule.type:&amp;nbsp;BCM_VLAN_RULE_TYPE_FLOW&lt;/li&gt;&lt;li&gt;tagRuleMatch&lt;br&gt;&lt;/li&gt;&lt;/ol&gt;" style="verticalAlign=top;align=left;overflow=fill;html=1;whiteSpace=wrap;fillColor=#dae8fc;strokeColor=#6c8ebf;" vertex="1" parent="8QHD-EmXQA5LtowCYumZ-1">
          <mxGeometry x="235.5" y="713" width="385" height="80" as="geometry" />
        </mxCell>
        <mxCell id="8QHD-EmXQA5LtowCYumZ-13" value="loop tagRule.cmd[]" style="shape=umlFrame;whiteSpace=wrap;html=1;pointerEvents=0;width=140;height=30;fillColor=#e1d5e7;strokeColor=#9673a6;" vertex="1" parent="8QHD-EmXQA5LtowCYumZ-1">
          <mxGeometry x="278" y="813" width="300" height="80" as="geometry" />
        </mxCell>
        <mxCell id="8QHD-EmXQA5LtowCYumZ-14" value="&lt;div style=&quot;line-height: 140%;&quot;&gt;Execute cmd when cmd[i].type !=&amp;nbsp;&lt;div&gt;BCM_VLAN_OPCODE_CONTINUE&amp;nbsp;&lt;/div&gt;&lt;/div&gt;" style="text;html=1;align=center;verticalAlign=middle;resizable=0;points=[];autosize=1;strokeColor=none;fillColor=none;spacing=3;" vertex="1" parent="8QHD-EmXQA5LtowCYumZ-1">
          <mxGeometry x="318" y="838" width="220" height="50" as="geometry" />
        </mxCell>
        <mxCell id="sFTiKNQOoEQJ8GIri2Ez-4" style="edgeStyle=orthogonalEdgeStyle;rounded=0;orthogonalLoop=1;jettySize=auto;html=1;entryX=0.5;entryY=0;entryDx=0;entryDy=0;" edge="1" parent="8QHD-EmXQA5LtowCYumZ-1" source="8QHD-EmXQA5LtowCYumZ-16" target="sFTiKNQOoEQJ8GIri2Ez-0">
          <mxGeometry relative="1" as="geometry">
            <mxPoint x="428" y="1198" as="targetPoint" />
          </mxGeometry>
        </mxCell>
        <mxCell id="8QHD-EmXQA5LtowCYumZ-16" value="loop qosTableEntry_p" style="shape=umlFrame;whiteSpace=wrap;html=1;pointerEvents=0;width=144;height=40;fillColor=#f8cecc;strokeColor=#b85450;" vertex="1" parent="8QHD-EmXQA5LtowCYumZ-1">
          <mxGeometry x="218" y="927" width="420" height="200" as="geometry" />
        </mxCell>
        <mxCell id="8QHD-EmXQA5LtowCYumZ-17" value="loop tagRule.cmd[]" style="shape=umlFrame;whiteSpace=wrap;html=1;pointerEvents=0;width=140;height=30;fillColor=#e1d5e7;strokeColor=#9673a6;" vertex="1" parent="8QHD-EmXQA5LtowCYumZ-1">
          <mxGeometry x="254" y="987" width="348" height="120" as="geometry" />
        </mxCell>
        <mxCell id="8QHD-EmXQA5LtowCYumZ-18" value="&lt;div&gt;&lt;br&gt;&lt;/div&gt;Execute cmd when cmd[i].type !=&lt;div&gt;&lt;br&gt;&lt;div&gt;BCM_VLAN_OPCODE_CONTINUE&amp;nbsp;&lt;/div&gt;&lt;div&gt;and&lt;/div&gt;&lt;div&gt;BCM_VLAN_OPCODE_DROP_FRAME&amp;nbsp;&lt;/div&gt;&lt;/div&gt;" style="text;html=1;align=center;verticalAlign=middle;resizable=0;points=[];autosize=1;strokeColor=none;fillColor=none;" vertex="1" parent="8QHD-EmXQA5LtowCYumZ-1">
          <mxGeometry x="308" y="1007" width="240" height="100" as="geometry" />
        </mxCell>
        <mxCell id="8QHD-EmXQA5LtowCYumZ-19" style="edgeStyle=orthogonalEdgeStyle;rounded=0;orthogonalLoop=1;jettySize=auto;html=1;exitX=0.5;exitY=1;exitDx=0;exitDy=0;" edge="1" parent="8QHD-EmXQA5LtowCYumZ-1" source="8QHD-EmXQA5LtowCYumZ-20" target="8QHD-EmXQA5LtowCYumZ-25">
          <mxGeometry relative="1" as="geometry" />
        </mxCell>
        <mxCell id="8QHD-EmXQA5LtowCYumZ-20" value="ruleTable-&amp;gt;defaultAction&lt;br&gt;or&lt;br&gt;is_mcast_bcast_packet_for_default_drop_action" style="rhombus;whiteSpace=wrap;html=1;fontColor=#000000;fillColor=#ffffc0;strokeColor=light-dark(#141414, #017070);" vertex="1" parent="8QHD-EmXQA5LtowCYumZ-1">
          <mxGeometry x="235.5" y="1370" width="360" height="120" as="geometry" />
        </mxCell>
        <mxCell id="8QHD-EmXQA5LtowCYumZ-21" value="Drop" style="edgeStyle=orthogonalEdgeStyle;html=1;align=left;verticalAlign=bottom;endArrow=open;endSize=8;strokeColor=#ff0000;rounded=0;entryX=0.5;entryY=0;entryDx=0;entryDy=0;" edge="1" parent="8QHD-EmXQA5LtowCYumZ-1" source="8QHD-EmXQA5LtowCYumZ-20" target="8QHD-EmXQA5LtowCYumZ-22">
          <mxGeometry x="-1" relative="1" as="geometry">
            <mxPoint x="544.5" y="1560" as="targetPoint" />
            <Array as="points">
              <mxPoint x="732.5" y="1430" />
            </Array>
          </mxGeometry>
        </mxCell>
        <mxCell id="8QHD-EmXQA5LtowCYumZ-22" value="cmdHandler_dropFrame" style="rounded=1;whiteSpace=wrap;html=1;fillColor=#dae8fc;strokeColor=#6c8ebf;" vertex="1" parent="8QHD-EmXQA5LtowCYumZ-1">
          <mxGeometry x="637.5" y="1520" width="190" height="40" as="geometry" />
        </mxCell>
        <mxCell id="8QHD-EmXQA5LtowCYumZ-23" value="" style="edgeStyle=orthogonalEdgeStyle;rounded=0;orthogonalLoop=1;jettySize=auto;html=1;entryX=0.521;entryY=-0.022;entryDx=0;entryDy=0;entryPerimeter=0;" edge="1" parent="8QHD-EmXQA5LtowCYumZ-1" source="8QHD-EmXQA5LtowCYumZ-25" target="8QHD-EmXQA5LtowCYumZ-29">
          <mxGeometry relative="1" as="geometry" />
        </mxCell>
        <mxCell id="8QHD-EmXQA5LtowCYumZ-24" style="edgeStyle=orthogonalEdgeStyle;rounded=0;orthogonalLoop=1;jettySize=auto;html=1;entryX=0.568;entryY=1.025;entryDx=0;entryDy=0;entryPerimeter=0;strokeColor=#FF440B;" edge="1" parent="8QHD-EmXQA5LtowCYumZ-1" source="8QHD-EmXQA5LtowCYumZ-25" target="8QHD-EmXQA5LtowCYumZ-22">
          <mxGeometry relative="1" as="geometry">
            <mxPoint x="617.5" y="1590" as="targetPoint" />
          </mxGeometry>
        </mxCell>
        <mxCell id="8QHD-EmXQA5LtowCYumZ-25" value="RX&amp;nbsp;&lt;div&gt;&amp;nbsp;BCM_VLAN_MODE_RG&lt;/div&gt;" style="shape=umlFrame;whiteSpace=wrap;html=1;pointerEvents=0;width=170;height=40;fillColor=#f8cecc;strokeColor=#b85450;" vertex="1" parent="8QHD-EmXQA5LtowCYumZ-1">
          <mxGeometry x="265.5" y="1540" width="340" height="100" as="geometry" />
        </mxCell>
        <mxCell id="8QHD-EmXQA5LtowCYumZ-26" value="If route or mac address is not matched&lt;div&gt;&lt;br&gt;&lt;/div&gt;" style="text;html=1;align=center;verticalAlign=middle;resizable=0;points=[];autosize=1;strokeColor=none;fillColor=none;" vertex="1" parent="8QHD-EmXQA5LtowCYumZ-1">
          <mxGeometry x="323.5" y="1593" width="230" height="40" as="geometry" />
        </mxCell>
        <mxCell id="8QHD-EmXQA5LtowCYumZ-27" style="edgeStyle=orthogonalEdgeStyle;rounded=0;orthogonalLoop=1;jettySize=auto;html=1;" edge="1" parent="8QHD-EmXQA5LtowCYumZ-1" source="8QHD-EmXQA5LtowCYumZ-29">
          <mxGeometry relative="1" as="geometry">
            <mxPoint x="727.5" y="1780" as="targetPoint" />
          </mxGeometry>
        </mxCell>
        <mxCell id="8QHD-EmXQA5LtowCYumZ-28" style="edgeStyle=orthogonalEdgeStyle;rounded=0;orthogonalLoop=1;jettySize=auto;html=1;entryX=0.5;entryY=0;entryDx=0;entryDy=0;" edge="1" parent="8QHD-EmXQA5LtowCYumZ-1" source="8QHD-EmXQA5LtowCYumZ-29" target="8QHD-EmXQA5LtowCYumZ-39">
          <mxGeometry relative="1" as="geometry" />
        </mxCell>
        <mxCell id="8QHD-EmXQA5LtowCYumZ-29" value="RX&amp;nbsp;&lt;div&gt;&amp;nbsp;BCM_VLAN_MODE_ONT&lt;/div&gt;" style="shape=umlFrame;whiteSpace=wrap;html=1;pointerEvents=0;width=170;height=40;fillColor=#f8cecc;strokeColor=#b85450;" vertex="1" parent="8QHD-EmXQA5LtowCYumZ-1">
          <mxGeometry x="265.5" y="1680" width="340" height="90" as="geometry" />
        </mxCell>
        <mxCell id="8QHD-EmXQA5LtowCYumZ-30" value="If multicast" style="text;html=1;align=center;verticalAlign=middle;resizable=0;points=[];autosize=1;strokeColor=none;fillColor=none;" vertex="1" parent="8QHD-EmXQA5LtowCYumZ-1">
          <mxGeometry x="395.5" y="1730" width="80" height="30" as="geometry" />
        </mxCell>
        <mxCell id="8QHD-EmXQA5LtowCYumZ-31" value="forwardMulticast" style="rounded=1;whiteSpace=wrap;html=1;fillColor=#dae8fc;strokeColor=#6c8ebf;" vertex="1" parent="8QHD-EmXQA5LtowCYumZ-1">
          <mxGeometry x="625.5" y="1780" width="190" height="40" as="geometry" />
        </mxCell>
        <mxCell id="8QHD-EmXQA5LtowCYumZ-33" style="edgeStyle=orthogonalEdgeStyle;rounded=0;orthogonalLoop=1;jettySize=auto;html=1;entryX=0;entryY=0.5;entryDx=0;entryDy=0;" edge="1" parent="8QHD-EmXQA5LtowCYumZ-1" source="8QHD-EmXQA5LtowCYumZ-34" target="8QHD-EmXQA5LtowCYumZ-41">
          <mxGeometry relative="1" as="geometry" />
        </mxCell>
        <mxCell id="sFTiKNQOoEQJ8GIri2Ez-12" value="" style="edgeStyle=orthogonalEdgeStyle;rounded=0;orthogonalLoop=1;jettySize=auto;html=1;entryX=0.5;entryY=0;entryDx=0;entryDy=0;" edge="1" parent="8QHD-EmXQA5LtowCYumZ-1" source="8QHD-EmXQA5LtowCYumZ-34" target="8QHD-EmXQA5LtowCYumZ-3">
          <mxGeometry relative="1" as="geometry" />
        </mxCell>
        <mxCell id="8QHD-EmXQA5LtowCYumZ-34" value="bcmVlan_processFrame" style="rounded=1;whiteSpace=wrap;html=1;fillColor=#dae8fc;strokeColor=#6c8ebf;" vertex="1" parent="8QHD-EmXQA5LtowCYumZ-1">
          <mxGeometry x="330" y="45" width="190" height="40" as="geometry" />
        </mxCell>
        <mxCell id="8QHD-EmXQA5LtowCYumZ-35" style="edgeStyle=orthogonalEdgeStyle;rounded=0;orthogonalLoop=1;jettySize=auto;html=1;entryX=0;entryY=0.5;entryDx=0;entryDy=0;" edge="1" parent="8QHD-EmXQA5LtowCYumZ-1" source="8QHD-EmXQA5LtowCYumZ-36" target="8QHD-EmXQA5LtowCYumZ-34">
          <mxGeometry relative="1" as="geometry" />
        </mxCell>
        <mxCell id="8QHD-EmXQA5LtowCYumZ-36" value="&lt;span style=&quot;&quot;&gt;&lt;b&gt;&lt;font style=&quot;font-size: 13px;&quot;&gt;bcm_vlan_handle_frame_hook&lt;/font&gt;&lt;/b&gt;&lt;/span&gt;" style="swimlane;whiteSpace=wrap;html=1;startSize=23;fontStyle=0;fillColor=#ffe6cc;strokeColor=#d79b00;" vertex="1" parent="8QHD-EmXQA5LtowCYumZ-1">
          <mxGeometry x="15" y="30" width="240" height="70" as="geometry" />
        </mxCell>
        <mxCell id="8QHD-EmXQA5LtowCYumZ-37" value="bcmVlan_devReceiveSkb" style="text;html=1;align=center;verticalAlign=middle;resizable=0;points=[];autosize=1;strokeColor=none;fillColor=none;" vertex="1" parent="8QHD-EmXQA5LtowCYumZ-36">
          <mxGeometry x="40" y="30" width="160" height="30" as="geometry" />
        </mxCell>
        <mxCell id="8QHD-EmXQA5LtowCYumZ-38" style="edgeStyle=orthogonalEdgeStyle;rounded=0;orthogonalLoop=1;jettySize=auto;html=1;entryX=0.5;entryY=0;entryDx=0;entryDy=0;" edge="1" parent="8QHD-EmXQA5LtowCYumZ-1" source="8QHD-EmXQA5LtowCYumZ-39" target="8QHD-EmXQA5LtowCYumZ-40">
          <mxGeometry relative="1" as="geometry" />
        </mxCell>
        <mxCell id="8QHD-EmXQA5LtowCYumZ-39" value="&lt;p style=&quot;margin: 4px 0px 0px; text-align: center;&quot;&gt;&lt;b&gt;&lt;u&gt;rxVlanDevInStackp&lt;/u&gt;&lt;/b&gt;&lt;/p&gt;&lt;hr size=&quot;1&quot; style=&quot;border-style:solid;&quot;&gt;&lt;p style=&quot;margin:0px;margin-left:8px;&quot;&gt;&lt;/p&gt;&lt;ul style=&quot;line-height: 160%;&quot;&gt;&lt;li&gt;&lt;span style=&quot;background-color: transparent; color: light-dark(rgb(0, 0, 0), rgb(255, 255, 255));&quot;&gt;RX and Multicast and RG, set&amp;nbsp;&amp;nbsp;&lt;/span&gt;&lt;b style=&quot;background-color: transparent; color: light-dark(rgb(0, 0, 0), rgb(255, 255, 255)); text-align: center;&quot;&gt;&lt;u&gt;rxVlanDevInStackp = 1&lt;/u&gt;&lt;/b&gt;&lt;/li&gt;&lt;li&gt;&lt;span style=&quot;background-color: transparent; color: light-dark(rgb(0, 0, 0), rgb(255, 255, 255));&quot;&gt;update&amp;nbsp;rxVlanDevInStackp according to whether skd-&amp;gt;dev in realDeviceCtrl list&amp;nbsp;&lt;/span&gt;&lt;/li&gt;&lt;/ul&gt;&lt;p&gt;&lt;/p&gt;" style="verticalAlign=top;align=left;overflow=fill;html=1;whiteSpace=wrap;fillColor=#dae8fc;strokeColor=#6c8ebf;" vertex="1" parent="8QHD-EmXQA5LtowCYumZ-1">
          <mxGeometry x="267.5" y="1800" width="340" height="140" as="geometry" />
        </mxCell>
        <mxCell id="8QHD-EmXQA5LtowCYumZ-40" value="return" style="ellipse;whiteSpace=wrap;html=1;" vertex="1" parent="8QHD-EmXQA5LtowCYumZ-1">
          <mxGeometry x="372.5" y="1970" width="130" height="60" as="geometry" />
        </mxCell>
        <mxCell id="8QHD-EmXQA5LtowCYumZ-41" value="Output" style="ellipse;shape=umlEntity;whiteSpace=wrap;html=1;" vertex="1" parent="8QHD-EmXQA5LtowCYumZ-1">
          <mxGeometry x="640" y="25" width="80" height="80" as="geometry" />
        </mxCell>
        <mxCell id="8QHD-EmXQA5LtowCYumZ-43" style="edgeStyle=orthogonalEdgeStyle;rounded=0;orthogonalLoop=1;jettySize=auto;html=1;entryX=0.5;entryY=-0.01;entryDx=0;entryDy=0;entryPerimeter=0;" edge="1" parent="8QHD-EmXQA5LtowCYumZ-1" source="8QHD-EmXQA5LtowCYumZ-11" target="8QHD-EmXQA5LtowCYumZ-16">
          <mxGeometry relative="1" as="geometry" />
        </mxCell>
        <mxCell id="sFTiKNQOoEQJ8GIri2Ez-23" style="edgeStyle=orthogonalEdgeStyle;rounded=0;orthogonalLoop=1;jettySize=auto;html=1;exitX=0.5;exitY=1;exitDx=0;exitDy=0;entryX=0.5;entryY=0;entryDx=0;entryDy=0;" edge="1" parent="8QHD-EmXQA5LtowCYumZ-1" source="8QHD-EmXQA5LtowCYumZ-45" target="sFTiKNQOoEQJ8GIri2Ez-18">
          <mxGeometry relative="1" as="geometry" />
        </mxCell>
        <mxCell id="8QHD-EmXQA5LtowCYumZ-45" value="Output" style="ellipse;shape=umlEntity;whiteSpace=wrap;html=1;" vertex="1" parent="8QHD-EmXQA5LtowCYumZ-1">
          <mxGeometry x="60" y="119" width="80" height="80" as="geometry" />
        </mxCell>
        <mxCell id="8QHD-EmXQA5LtowCYumZ-46" style="edgeStyle=orthogonalEdgeStyle;rounded=0;orthogonalLoop=1;jettySize=auto;html=1;entryX=0.5;entryY=0;entryDx=0;entryDy=0;" edge="1" parent="8QHD-EmXQA5LtowCYumZ-1" source="8QHD-EmXQA5LtowCYumZ-47" target="8QHD-EmXQA5LtowCYumZ-48">
          <mxGeometry relative="1" as="geometry" />
        </mxCell>
        <mxCell id="8QHD-EmXQA5LtowCYumZ-47" value="update rx/tx statistics" style="shape=process;whiteSpace=wrap;html=1;backgroundOutline=1;fillColor=#f8cecc;strokeColor=#b85450;" vertex="1" parent="8QHD-EmXQA5LtowCYumZ-1">
          <mxGeometry x="10" y="279" width="180" height="40" as="geometry" />
        </mxCell>
        <mxCell id="8QHD-EmXQA5LtowCYumZ-48" value="&lt;b&gt;&lt;u&gt;rxVlanDevInStackp&lt;/u&gt;&lt;/b&gt;" style="rhombus;whiteSpace=wrap;html=1;fontColor=#000000;fillColor=#ffffc0;strokeColor=#ff0000;" vertex="1" parent="8QHD-EmXQA5LtowCYumZ-1">
          <mxGeometry x="10" y="339" width="180" height="40" as="geometry" />
        </mxCell>
        <mxCell id="8QHD-EmXQA5LtowCYumZ-49" value="yes" style="edgeStyle=orthogonalEdgeStyle;html=1;align=left;verticalAlign=top;endArrow=open;endSize=8;strokeColor=#ff0000;rounded=0;entryX=0.5;entryY=0;entryDx=0;entryDy=0;" edge="1" parent="8QHD-EmXQA5LtowCYumZ-1" source="8QHD-EmXQA5LtowCYumZ-48" target="8QHD-EmXQA5LtowCYumZ-52">
          <mxGeometry x="-1" relative="1" as="geometry">
            <mxPoint x="100" y="489" as="targetPoint" />
          </mxGeometry>
        </mxCell>
        <mxCell id="8QHD-EmXQA5LtowCYumZ-50" value="End" style="ellipse;html=1;shape=endState;fillColor=#F6F6F6;strokeColor=light-dark(#0d0c0c, #017070);" vertex="1" parent="8QHD-EmXQA5LtowCYumZ-1">
          <mxGeometry x="50" y="489" width="100" height="40" as="geometry" />
        </mxCell>
        <mxCell id="8QHD-EmXQA5LtowCYumZ-51" style="edgeStyle=orthogonalEdgeStyle;rounded=0;orthogonalLoop=1;jettySize=auto;html=1;entryX=0.5;entryY=0;entryDx=0;entryDy=0;" edge="1" parent="8QHD-EmXQA5LtowCYumZ-1" source="8QHD-EmXQA5LtowCYumZ-52" target="8QHD-EmXQA5LtowCYumZ-50">
          <mxGeometry relative="1" as="geometry" />
        </mxCell>
        <mxCell id="8QHD-EmXQA5LtowCYumZ-52" value="netif_rx" style="rounded=1;whiteSpace=wrap;html=1;fillColor=#dae8fc;strokeColor=#6c8ebf;" vertex="1" parent="8QHD-EmXQA5LtowCYumZ-1">
          <mxGeometry x="30" y="418.5" width="140" height="40" as="geometry" />
        </mxCell>
        <mxCell id="sFTiKNQOoEQJ8GIri2Ez-0" value="Continue" style="ellipse;whiteSpace=wrap;html=1;aspect=fixed;" vertex="1" parent="8QHD-EmXQA5LtowCYumZ-1">
          <mxGeometry x="388" y="1149" width="80" height="80" as="geometry" />
        </mxCell>
        <mxCell id="sFTiKNQOoEQJ8GIri2Ez-2" style="edgeStyle=orthogonalEdgeStyle;rounded=0;orthogonalLoop=1;jettySize=auto;html=1;entryX=0.5;entryY=0;entryDx=0;entryDy=0;" edge="1" parent="8QHD-EmXQA5LtowCYumZ-1" source="sFTiKNQOoEQJ8GIri2Ez-1" target="8QHD-EmXQA5LtowCYumZ-20">
          <mxGeometry relative="1" as="geometry" />
        </mxCell>
        <mxCell id="sFTiKNQOoEQJ8GIri2Ez-1" value="Continue" style="ellipse;whiteSpace=wrap;html=1;aspect=fixed;" vertex="1" parent="8QHD-EmXQA5LtowCYumZ-1">
          <mxGeometry x="375.5" y="1270" width="80" height="80" as="geometry" />
        </mxCell>
        <mxCell id="sFTiKNQOoEQJ8GIri2Ez-13" value="Continue" style="ellipse;whiteSpace=wrap;html=1;aspect=fixed;" vertex="1" parent="8QHD-EmXQA5LtowCYumZ-1">
          <mxGeometry x="388" y="490" width="80" height="80" as="geometry" />
        </mxCell>
        <mxCell id="sFTiKNQOoEQJ8GIri2Ez-16" value="Continue" style="ellipse;whiteSpace=wrap;html=1;aspect=fixed;" vertex="1" parent="8QHD-EmXQA5LtowCYumZ-1">
          <mxGeometry x="388" y="580" width="80" height="80" as="geometry" />
        </mxCell>
        <mxCell id="sFTiKNQOoEQJ8GIri2Ez-17" style="edgeStyle=orthogonalEdgeStyle;rounded=0;orthogonalLoop=1;jettySize=auto;html=1;exitX=0.5;exitY=1;exitDx=0;exitDy=0;entryX=0.507;entryY=-0.004;entryDx=0;entryDy=0;entryPerimeter=0;" edge="1" parent="8QHD-EmXQA5LtowCYumZ-1" source="sFTiKNQOoEQJ8GIri2Ez-16" target="8QHD-EmXQA5LtowCYumZ-11">
          <mxGeometry relative="1" as="geometry" />
        </mxCell>
        <mxCell id="sFTiKNQOoEQJ8GIri2Ez-18" value="Return Value" style="rhombus;whiteSpace=wrap;html=1;fontColor=#000000;fillColor=#ffffc0;strokeColor=#ff0000;" vertex="1" parent="8QHD-EmXQA5LtowCYumZ-1">
          <mxGeometry x="50" y="215" width="100" height="40" as="geometry" />
        </mxCell>
        <mxCell id="sFTiKNQOoEQJ8GIri2Ez-19" value="Forward" style="edgeStyle=orthogonalEdgeStyle;html=1;align=left;verticalAlign=bottom;endArrow=open;endSize=8;strokeColor=#ff0000;rounded=0;" edge="1" source="sFTiKNQOoEQJ8GIri2Ez-18" parent="8QHD-EmXQA5LtowCYumZ-1">
          <mxGeometry x="-1" relative="1" as="geometry">
            <mxPoint x="210" y="180" as="targetPoint" />
            <mxPoint as="offset" />
          </mxGeometry>
        </mxCell>
        <mxCell id="sFTiKNQOoEQJ8GIri2Ez-20" value="" style="edgeStyle=orthogonalEdgeStyle;html=1;align=left;verticalAlign=top;endArrow=open;endSize=8;strokeColor=#ff0000;rounded=0;" edge="1" source="sFTiKNQOoEQJ8GIri2Ez-18" parent="8QHD-EmXQA5LtowCYumZ-1">
          <mxGeometry x="-1" relative="1" as="geometry">
            <mxPoint x="100" y="280" as="targetPoint" />
          </mxGeometry>
        </mxCell>
        <mxCell id="sFTiKNQOoEQJ8GIri2Ez-22" value="Next Hook Chain" style="ellipse;whiteSpace=wrap;html=1;" vertex="1" parent="8QHD-EmXQA5LtowCYumZ-1">
          <mxGeometry x="150" y="140" width="120" height="43" as="geometry" />
        </mxCell>
      </root>
    </mxGraphModel>
  </diagram>
  <diagram name="Copy of Page-4" id="rxWAnsBj91067CXLQPA2">
    <mxGraphModel grid="1" page="1" gridSize="10" guides="1" tooltips="1" connect="1" arrows="1" fold="1" pageScale="1" pageWidth="850" pageHeight="1100" math="0" shadow="0">
      <root>
        <mxCell id="TYjqbavaeQymizzAcwIQ-0" />
        <mxCell id="TYjqbavaeQymizzAcwIQ-1" parent="TYjqbavaeQymizzAcwIQ-0" />
        <mxCell id="TYjqbavaeQymizzAcwIQ-2" style="edgeStyle=orthogonalEdgeStyle;rounded=0;orthogonalLoop=1;jettySize=auto;html=1;exitX=0.5;exitY=1;exitDx=0;exitDy=0;" edge="1" parent="TYjqbavaeQymizzAcwIQ-1" source="TYjqbavaeQymizzAcwIQ-3">
          <mxGeometry relative="1" as="geometry">
            <mxPoint x="425" y="190" as="targetPoint" />
          </mxGeometry>
        </mxCell>
        <mxCell id="TYjqbavaeQymizzAcwIQ-3" value="parseFrameHeader" style="rounded=1;whiteSpace=wrap;html=1;fillColor=#dae8fc;strokeColor=#6c8ebf;" vertex="1" parent="TYjqbavaeQymizzAcwIQ-1">
          <mxGeometry x="330" y="125" width="190" height="40" as="geometry" />
        </mxCell>
        <mxCell id="TYjqbavaeQymizzAcwIQ-4" value="Multicast and&amp;nbsp;&lt;div&gt;BCM_VLAN_MODE_RG&amp;nbsp;&lt;/div&gt;" style="rhombus;whiteSpace=wrap;html=1;fontColor=#000000;fillColor=#ffffc0;strokeColor=#ff0000;" vertex="1" parent="TYjqbavaeQymizzAcwIQ-1">
          <mxGeometry x="320" y="192" width="210" height="80" as="geometry" />
        </mxCell>
        <mxCell id="TYjqbavaeQymizzAcwIQ-5" value="" style="edgeStyle=orthogonalEdgeStyle;html=1;align=left;verticalAlign=bottom;endArrow=open;endSize=8;strokeColor=#ff0000;rounded=0;" edge="1" parent="TYjqbavaeQymizzAcwIQ-1">
          <mxGeometry x="-0.8333" y="10" relative="1" as="geometry">
            <mxPoint x="580" y="232" as="targetPoint" />
            <mxPoint as="offset" />
            <mxPoint x="529" y="232" as="sourcePoint" />
          </mxGeometry>
        </mxCell>
        <mxCell id="TYjqbavaeQymizzAcwIQ-6" value="yes" style="edgeLabel;html=1;align=center;verticalAlign=middle;resizable=0;points=[];" vertex="1" connectable="0" parent="TYjqbavaeQymizzAcwIQ-5">
          <mxGeometry x="-0.85" y="12" relative="1" as="geometry">
            <mxPoint as="offset" />
          </mxGeometry>
        </mxCell>
        <mxCell id="TYjqbavaeQymizzAcwIQ-7" value="no" style="edgeStyle=orthogonalEdgeStyle;html=1;align=left;verticalAlign=top;endArrow=open;endSize=8;strokeColor=#ff0000;rounded=0;entryX=0.488;entryY=-0.015;entryDx=0;entryDy=0;entryPerimeter=0;" edge="1" parent="TYjqbavaeQymizzAcwIQ-1" target="TYjqbavaeQymizzAcwIQ-9">
          <mxGeometry x="-1" relative="1" as="geometry">
            <mxPoint x="423" y="290" as="targetPoint" />
            <mxPoint x="423" y="270" as="sourcePoint" />
            <Array as="points" />
          </mxGeometry>
        </mxCell>
        <mxCell id="TYjqbavaeQymizzAcwIQ-8" value="bcmVlan_processRxMulticastRG" style="rounded=1;whiteSpace=wrap;html=1;fillColor=#dae8fc;strokeColor=#6c8ebf;" vertex="1" parent="TYjqbavaeQymizzAcwIQ-1">
          <mxGeometry x="581" y="212" width="190" height="40" as="geometry" />
        </mxCell>
        <mxCell id="TYjqbavaeQymizzAcwIQ-9" value="build&amp;nbsp;qosTableEntry_p" style="shape=umlFrame;whiteSpace=wrap;html=1;pointerEvents=0;width=160;height=40;fillColor=#f8cecc;strokeColor=#b85450;" vertex="1" parent="TYjqbavaeQymizzAcwIQ-1">
          <mxGeometry x="218" y="309" width="420" height="203" as="geometry" />
        </mxCell>
        <mxCell id="TYjqbavaeQymizzAcwIQ-10" value="&lt;div style=&quot;line-height: 150%;&quot;&gt;&lt;p style=&quot;margin: 4px 0px 0px; text-align: center; text-decoration: underline;&quot;&gt;&lt;b&gt;Condition&lt;/b&gt;&lt;/p&gt;&lt;hr size=&quot;1&quot; style=&quot;border-style:solid;&quot;&gt;&lt;p style=&quot;margin:0px;margin-left:8px;&quot;&gt;&lt;/p&gt;&lt;ol&gt;&lt;li&gt;&lt;span style=&quot;background-color: transparent; color: light-dark(rgb(0, 0, 0), rgb(255, 255, 255));&quot;&gt;loop ruleTable[tableDir][cmdInfo.nbrOfTags]&lt;/span&gt;&lt;/li&gt;&lt;li&gt;&lt;span style=&quot;background-color: transparent; color: light-dark(rgb(0, 0, 0), rgb(255, 255, 255));&quot;&gt;tagRule.type:&amp;nbsp;BCM_VLAN_RULE_TYPE_QOS&lt;/span&gt;&lt;/li&gt;&lt;li&gt;&lt;span style=&quot;background-color: transparent; color: light-dark(rgb(0, 0, 0), rgb(255, 255, 255));&quot;&gt;tagRuleMatch&lt;/span&gt;&lt;/li&gt;&lt;li&gt;loop end when tagRule.cmd[i].opCode not equal to&amp;nbsp;&amp;nbsp;BCM_VLAN_OPCODE_CONTINUE&lt;/li&gt;&lt;/ol&gt;&lt;/div&gt;" style="verticalAlign=top;align=left;overflow=fill;html=1;whiteSpace=wrap;fillColor=#dae8fc;strokeColor=#6c8ebf;" vertex="1" parent="TYjqbavaeQymizzAcwIQ-1">
          <mxGeometry x="253" y="362" width="350" height="135" as="geometry" />
        </mxCell>
        <mxCell id="TYjqbavaeQymizzAcwIQ-11" value="loop&amp;nbsp;ruleTable-&amp;gt;tableEntryLL" style="shape=umlFrame;whiteSpace=wrap;html=1;pointerEvents=0;width=194;height=30;fillColor=#f8cecc;strokeColor=#b85450;" vertex="1" parent="TYjqbavaeQymizzAcwIQ-1">
          <mxGeometry x="218" y="559" width="420" height="230" as="geometry" />
        </mxCell>
        <mxCell id="TYjqbavaeQymizzAcwIQ-12" value="&lt;p style=&quot;margin:0px;margin-top:4px;text-align:center;text-decoration:underline;&quot;&gt;&lt;b&gt;Condition&amp;nbsp; &amp;nbsp;(set match=1 when satisfied)&lt;/b&gt;&lt;/p&gt;&lt;hr size=&quot;1&quot; style=&quot;border-style:solid;&quot;&gt;&lt;p style=&quot;margin:0px;margin-left:8px;&quot;&gt;&lt;/p&gt;&lt;ol&gt;&lt;li&gt;tagRule.type:&amp;nbsp;BCM_VLAN_RULE_TYPE_FLOW&lt;/li&gt;&lt;li&gt;tagRuleMatch&lt;br&gt;&lt;/li&gt;&lt;/ol&gt;" style="verticalAlign=top;align=left;overflow=fill;html=1;whiteSpace=wrap;fillColor=#dae8fc;strokeColor=#6c8ebf;" vertex="1" parent="TYjqbavaeQymizzAcwIQ-1">
          <mxGeometry x="235.5" y="599" width="385" height="80" as="geometry" />
        </mxCell>
        <mxCell id="TYjqbavaeQymizzAcwIQ-13" value="loop tagRule.cmd[]" style="shape=umlFrame;whiteSpace=wrap;html=1;pointerEvents=0;width=140;height=30;fillColor=#e1d5e7;strokeColor=#9673a6;" vertex="1" parent="TYjqbavaeQymizzAcwIQ-1">
          <mxGeometry x="278" y="699" width="300" height="80" as="geometry" />
        </mxCell>
        <mxCell id="TYjqbavaeQymizzAcwIQ-14" value="&lt;div style=&quot;line-height: 140%;&quot;&gt;Execute cmd when cmd[i].type !=&amp;nbsp;&lt;div&gt;BCM_VLAN_OPCODE_CONTINUE&amp;nbsp;&lt;/div&gt;&lt;/div&gt;" style="text;html=1;align=center;verticalAlign=middle;resizable=0;points=[];autosize=1;strokeColor=none;fillColor=none;spacing=3;" vertex="1" parent="TYjqbavaeQymizzAcwIQ-1">
          <mxGeometry x="318" y="724" width="220" height="50" as="geometry" />
        </mxCell>
        <mxCell id="TYjqbavaeQymizzAcwIQ-15" style="edgeStyle=orthogonalEdgeStyle;rounded=0;orthogonalLoop=1;jettySize=auto;html=1;entryX=0.5;entryY=0;entryDx=0;entryDy=0;" edge="1" parent="TYjqbavaeQymizzAcwIQ-1" source="TYjqbavaeQymizzAcwIQ-16" target="TYjqbavaeQymizzAcwIQ-20">
          <mxGeometry relative="1" as="geometry" />
        </mxCell>
        <mxCell id="TYjqbavaeQymizzAcwIQ-16" value="loop qosTableEntry_p" style="shape=umlFrame;whiteSpace=wrap;html=1;pointerEvents=0;width=144;height=40;fillColor=#f8cecc;strokeColor=#b85450;" vertex="1" parent="TYjqbavaeQymizzAcwIQ-1">
          <mxGeometry x="218" y="832" width="420" height="200" as="geometry" />
        </mxCell>
        <mxCell id="TYjqbavaeQymizzAcwIQ-17" value="loop tagRule.cmd[]" style="shape=umlFrame;whiteSpace=wrap;html=1;pointerEvents=0;width=140;height=30;fillColor=#e1d5e7;strokeColor=#9673a6;" vertex="1" parent="TYjqbavaeQymizzAcwIQ-1">
          <mxGeometry x="254" y="892" width="348" height="120" as="geometry" />
        </mxCell>
        <mxCell id="TYjqbavaeQymizzAcwIQ-18" value="&lt;div&gt;&lt;br&gt;&lt;/div&gt;Execute cmd when cmd[i].type !=&lt;div&gt;&lt;br&gt;&lt;div&gt;BCM_VLAN_OPCODE_CONTINUE&amp;nbsp;&lt;/div&gt;&lt;div&gt;and&lt;/div&gt;&lt;div&gt;BCM_VLAN_OPCODE_DROP_FRAME&amp;nbsp;&lt;/div&gt;&lt;/div&gt;" style="text;html=1;align=center;verticalAlign=middle;resizable=0;points=[];autosize=1;strokeColor=none;fillColor=none;" vertex="1" parent="TYjqbavaeQymizzAcwIQ-1">
          <mxGeometry x="308" y="912" width="240" height="100" as="geometry" />
        </mxCell>
        <mxCell id="TYjqbavaeQymizzAcwIQ-19" style="edgeStyle=orthogonalEdgeStyle;rounded=0;orthogonalLoop=1;jettySize=auto;html=1;exitX=0.5;exitY=1;exitDx=0;exitDy=0;" edge="1" parent="TYjqbavaeQymizzAcwIQ-1" source="TYjqbavaeQymizzAcwIQ-20" target="TYjqbavaeQymizzAcwIQ-25">
          <mxGeometry relative="1" as="geometry" />
        </mxCell>
        <mxCell id="TYjqbavaeQymizzAcwIQ-20" value="ruleTable-&amp;gt;defaultAction&lt;br&gt;or&lt;br&gt;is_mcast_bcast_packet_for_default_drop_action" style="rhombus;whiteSpace=wrap;html=1;fontColor=#000000;fillColor=#ffffc0;strokeColor=light-dark(#141414, #017070);" vertex="1" parent="TYjqbavaeQymizzAcwIQ-1">
          <mxGeometry x="248" y="1060" width="360" height="120" as="geometry" />
        </mxCell>
        <mxCell id="TYjqbavaeQymizzAcwIQ-21" value="Drop" style="edgeStyle=orthogonalEdgeStyle;html=1;align=left;verticalAlign=bottom;endArrow=open;endSize=8;strokeColor=#ff0000;rounded=0;entryX=0.5;entryY=0;entryDx=0;entryDy=0;" edge="1" parent="TYjqbavaeQymizzAcwIQ-1" source="TYjqbavaeQymizzAcwIQ-20" target="TYjqbavaeQymizzAcwIQ-22">
          <mxGeometry x="-1" relative="1" as="geometry">
            <mxPoint x="557" y="1250" as="targetPoint" />
            <Array as="points">
              <mxPoint x="745" y="1120" />
            </Array>
          </mxGeometry>
        </mxCell>
        <mxCell id="TYjqbavaeQymizzAcwIQ-22" value="cmdHandler_dropFrame" style="rounded=1;whiteSpace=wrap;html=1;fillColor=#dae8fc;strokeColor=#6c8ebf;" vertex="1" parent="TYjqbavaeQymizzAcwIQ-1">
          <mxGeometry x="650" y="1210" width="190" height="40" as="geometry" />
        </mxCell>
        <mxCell id="TYjqbavaeQymizzAcwIQ-23" value="" style="edgeStyle=orthogonalEdgeStyle;rounded=0;orthogonalLoop=1;jettySize=auto;html=1;entryX=0.521;entryY=-0.022;entryDx=0;entryDy=0;entryPerimeter=0;" edge="1" parent="TYjqbavaeQymizzAcwIQ-1" source="TYjqbavaeQymizzAcwIQ-25" target="TYjqbavaeQymizzAcwIQ-29">
          <mxGeometry relative="1" as="geometry" />
        </mxCell>
        <mxCell id="TYjqbavaeQymizzAcwIQ-24" style="edgeStyle=orthogonalEdgeStyle;rounded=0;orthogonalLoop=1;jettySize=auto;html=1;entryX=0.568;entryY=1.025;entryDx=0;entryDy=0;entryPerimeter=0;strokeColor=#FF440B;" edge="1" parent="TYjqbavaeQymizzAcwIQ-1" source="TYjqbavaeQymizzAcwIQ-25" target="TYjqbavaeQymizzAcwIQ-22">
          <mxGeometry relative="1" as="geometry">
            <mxPoint x="630" y="1280" as="targetPoint" />
          </mxGeometry>
        </mxCell>
        <mxCell id="TYjqbavaeQymizzAcwIQ-25" value="RX&amp;nbsp;&lt;div&gt;&amp;nbsp;BCM_VLAN_MODE_RG&lt;/div&gt;" style="shape=umlFrame;whiteSpace=wrap;html=1;pointerEvents=0;width=170;height=40;fillColor=#f8cecc;strokeColor=#b85450;" vertex="1" parent="TYjqbavaeQymizzAcwIQ-1">
          <mxGeometry x="278" y="1230" width="340" height="100" as="geometry" />
        </mxCell>
        <mxCell id="TYjqbavaeQymizzAcwIQ-26" value="If route or mac address is not matched&lt;div&gt;&lt;br&gt;&lt;/div&gt;" style="text;html=1;align=center;verticalAlign=middle;resizable=0;points=[];autosize=1;strokeColor=none;fillColor=none;" vertex="1" parent="TYjqbavaeQymizzAcwIQ-1">
          <mxGeometry x="336" y="1283" width="230" height="40" as="geometry" />
        </mxCell>
        <mxCell id="TYjqbavaeQymizzAcwIQ-27" style="edgeStyle=orthogonalEdgeStyle;rounded=0;orthogonalLoop=1;jettySize=auto;html=1;" edge="1" parent="TYjqbavaeQymizzAcwIQ-1" source="TYjqbavaeQymizzAcwIQ-29">
          <mxGeometry relative="1" as="geometry">
            <mxPoint x="740" y="1470" as="targetPoint" />
          </mxGeometry>
        </mxCell>
        <mxCell id="TYjqbavaeQymizzAcwIQ-28" style="edgeStyle=orthogonalEdgeStyle;rounded=0;orthogonalLoop=1;jettySize=auto;html=1;entryX=0.5;entryY=0;entryDx=0;entryDy=0;" edge="1" parent="TYjqbavaeQymizzAcwIQ-1" source="TYjqbavaeQymizzAcwIQ-29" target="TYjqbavaeQymizzAcwIQ-39">
          <mxGeometry relative="1" as="geometry" />
        </mxCell>
        <mxCell id="TYjqbavaeQymizzAcwIQ-29" value="RX&amp;nbsp;&lt;div&gt;&amp;nbsp;BCM_VLAN_MODE_ONT&lt;/div&gt;" style="shape=umlFrame;whiteSpace=wrap;html=1;pointerEvents=0;width=170;height=40;fillColor=#f8cecc;strokeColor=#b85450;" vertex="1" parent="TYjqbavaeQymizzAcwIQ-1">
          <mxGeometry x="278" y="1370" width="340" height="90" as="geometry" />
        </mxCell>
        <mxCell id="TYjqbavaeQymizzAcwIQ-30" value="If multicast" style="text;html=1;align=center;verticalAlign=middle;resizable=0;points=[];autosize=1;strokeColor=none;fillColor=none;" vertex="1" parent="TYjqbavaeQymizzAcwIQ-1">
          <mxGeometry x="408" y="1420" width="80" height="30" as="geometry" />
        </mxCell>
        <mxCell id="TYjqbavaeQymizzAcwIQ-31" value="forwardMulticast" style="rounded=1;whiteSpace=wrap;html=1;fillColor=#dae8fc;strokeColor=#6c8ebf;" vertex="1" parent="TYjqbavaeQymizzAcwIQ-1">
          <mxGeometry x="638" y="1470" width="190" height="40" as="geometry" />
        </mxCell>
        <mxCell id="TYjqbavaeQymizzAcwIQ-32" style="edgeStyle=orthogonalEdgeStyle;rounded=0;orthogonalLoop=1;jettySize=auto;html=1;exitX=0.5;exitY=1;exitDx=0;exitDy=0;" edge="1" parent="TYjqbavaeQymizzAcwIQ-1" source="TYjqbavaeQymizzAcwIQ-34">
          <mxGeometry relative="1" as="geometry">
            <mxPoint x="425" y="120" as="targetPoint" />
          </mxGeometry>
        </mxCell>
        <mxCell id="TYjqbavaeQymizzAcwIQ-33" style="edgeStyle=orthogonalEdgeStyle;rounded=0;orthogonalLoop=1;jettySize=auto;html=1;entryX=0;entryY=0.5;entryDx=0;entryDy=0;" edge="1" parent="TYjqbavaeQymizzAcwIQ-1" source="TYjqbavaeQymizzAcwIQ-34" target="TYjqbavaeQymizzAcwIQ-41">
          <mxGeometry relative="1" as="geometry" />
        </mxCell>
        <mxCell id="TYjqbavaeQymizzAcwIQ-34" value="bcmVlan_processFrame" style="rounded=1;whiteSpace=wrap;html=1;fillColor=#dae8fc;strokeColor=#6c8ebf;" vertex="1" parent="TYjqbavaeQymizzAcwIQ-1">
          <mxGeometry x="330" y="45" width="190" height="40" as="geometry" />
        </mxCell>
        <mxCell id="TYjqbavaeQymizzAcwIQ-35" style="edgeStyle=orthogonalEdgeStyle;rounded=0;orthogonalLoop=1;jettySize=auto;html=1;entryX=0;entryY=0.5;entryDx=0;entryDy=0;" edge="1" parent="TYjqbavaeQymizzAcwIQ-1" source="TYjqbavaeQymizzAcwIQ-36" target="TYjqbavaeQymizzAcwIQ-34">
          <mxGeometry relative="1" as="geometry" />
        </mxCell>
        <mxCell id="TYjqbavaeQymizzAcwIQ-36" value="&lt;span style=&quot;&quot;&gt;&lt;b&gt;&lt;font style=&quot;font-size: 13px;&quot;&gt;bcm_vlan_handle_frame_hook&lt;/font&gt;&lt;/b&gt;&lt;/span&gt;" style="swimlane;whiteSpace=wrap;html=1;startSize=23;fontStyle=0;fillColor=#ffe6cc;strokeColor=#d79b00;" vertex="1" parent="TYjqbavaeQymizzAcwIQ-1">
          <mxGeometry x="15" y="30" width="240" height="70" as="geometry" />
        </mxCell>
        <mxCell id="TYjqbavaeQymizzAcwIQ-37" value="bcmVlan_devReceiveSkb" style="text;html=1;align=center;verticalAlign=middle;resizable=0;points=[];autosize=1;strokeColor=none;fillColor=none;" vertex="1" parent="TYjqbavaeQymizzAcwIQ-36">
          <mxGeometry x="40" y="30" width="160" height="30" as="geometry" />
        </mxCell>
        <mxCell id="TYjqbavaeQymizzAcwIQ-38" style="edgeStyle=orthogonalEdgeStyle;rounded=0;orthogonalLoop=1;jettySize=auto;html=1;entryX=0.5;entryY=0;entryDx=0;entryDy=0;" edge="1" parent="TYjqbavaeQymizzAcwIQ-1" source="TYjqbavaeQymizzAcwIQ-39" target="TYjqbavaeQymizzAcwIQ-40">
          <mxGeometry relative="1" as="geometry" />
        </mxCell>
        <mxCell id="TYjqbavaeQymizzAcwIQ-39" value="&lt;p style=&quot;margin: 4px 0px 0px; text-align: center;&quot;&gt;&lt;b&gt;&lt;u&gt;rxVlanDevInStackp&lt;/u&gt;&lt;/b&gt;&lt;/p&gt;&lt;hr size=&quot;1&quot; style=&quot;border-style:solid;&quot;&gt;&lt;p style=&quot;margin:0px;margin-left:8px;&quot;&gt;&lt;/p&gt;&lt;ul style=&quot;line-height: 160%;&quot;&gt;&lt;li&gt;&lt;span style=&quot;background-color: transparent; color: light-dark(rgb(0, 0, 0), rgb(255, 255, 255));&quot;&gt;RX and Multicast and RG, set&amp;nbsp;&amp;nbsp;&lt;/span&gt;&lt;b style=&quot;background-color: transparent; color: light-dark(rgb(0, 0, 0), rgb(255, 255, 255)); text-align: center;&quot;&gt;&lt;u&gt;rxVlanDevInStackp = 1&lt;/u&gt;&lt;/b&gt;&lt;/li&gt;&lt;li&gt;&lt;span style=&quot;background-color: transparent; color: light-dark(rgb(0, 0, 0), rgb(255, 255, 255));&quot;&gt;update&amp;nbsp;rxVlanDevInStackp according to whether skd-&amp;gt;dev in realDeviceCtrl list&amp;nbsp;&lt;/span&gt;&lt;/li&gt;&lt;/ul&gt;&lt;p&gt;&lt;/p&gt;" style="verticalAlign=top;align=left;overflow=fill;html=1;whiteSpace=wrap;fillColor=#dae8fc;strokeColor=#6c8ebf;" vertex="1" parent="TYjqbavaeQymizzAcwIQ-1">
          <mxGeometry x="280" y="1490" width="340" height="140" as="geometry" />
        </mxCell>
        <mxCell id="TYjqbavaeQymizzAcwIQ-40" value="return" style="ellipse;whiteSpace=wrap;html=1;" vertex="1" parent="TYjqbavaeQymizzAcwIQ-1">
          <mxGeometry x="385" y="1660" width="130" height="60" as="geometry" />
        </mxCell>
        <mxCell id="TYjqbavaeQymizzAcwIQ-41" value="Output" style="ellipse;shape=umlEntity;whiteSpace=wrap;html=1;" vertex="1" parent="TYjqbavaeQymizzAcwIQ-1">
          <mxGeometry x="640" y="25" width="80" height="80" as="geometry" />
        </mxCell>
        <mxCell id="TYjqbavaeQymizzAcwIQ-42" style="edgeStyle=orthogonalEdgeStyle;rounded=0;orthogonalLoop=1;jettySize=auto;html=1;entryX=0.502;entryY=0.013;entryDx=0;entryDy=0;entryPerimeter=0;" edge="1" parent="TYjqbavaeQymizzAcwIQ-1" source="TYjqbavaeQymizzAcwIQ-9" target="TYjqbavaeQymizzAcwIQ-11">
          <mxGeometry relative="1" as="geometry" />
        </mxCell>
        <mxCell id="TYjqbavaeQymizzAcwIQ-43" style="edgeStyle=orthogonalEdgeStyle;rounded=0;orthogonalLoop=1;jettySize=auto;html=1;entryX=0.5;entryY=-0.01;entryDx=0;entryDy=0;entryPerimeter=0;" edge="1" parent="TYjqbavaeQymizzAcwIQ-1" source="TYjqbavaeQymizzAcwIQ-11" target="TYjqbavaeQymizzAcwIQ-16">
          <mxGeometry relative="1" as="geometry" />
        </mxCell>
        <mxCell id="TYjqbavaeQymizzAcwIQ-44" style="edgeStyle=orthogonalEdgeStyle;rounded=0;orthogonalLoop=1;jettySize=auto;html=1;exitX=0.5;exitY=1;exitDx=0;exitDy=0;entryX=0.5;entryY=0;entryDx=0;entryDy=0;" edge="1" parent="TYjqbavaeQymizzAcwIQ-1" source="TYjqbavaeQymizzAcwIQ-45" target="TYjqbavaeQymizzAcwIQ-47">
          <mxGeometry relative="1" as="geometry" />
        </mxCell>
        <mxCell id="TYjqbavaeQymizzAcwIQ-45" value="Output" style="ellipse;shape=umlEntity;whiteSpace=wrap;html=1;" vertex="1" parent="TYjqbavaeQymizzAcwIQ-1">
          <mxGeometry x="60" y="165" width="80" height="80" as="geometry" />
        </mxCell>
        <mxCell id="TYjqbavaeQymizzAcwIQ-46" style="edgeStyle=orthogonalEdgeStyle;rounded=0;orthogonalLoop=1;jettySize=auto;html=1;entryX=0.5;entryY=0;entryDx=0;entryDy=0;" edge="1" parent="TYjqbavaeQymizzAcwIQ-1" source="TYjqbavaeQymizzAcwIQ-47" target="TYjqbavaeQymizzAcwIQ-48">
          <mxGeometry relative="1" as="geometry" />
        </mxCell>
        <mxCell id="TYjqbavaeQymizzAcwIQ-47" value="update rx/tx statistics" style="shape=process;whiteSpace=wrap;html=1;backgroundOutline=1;fillColor=#f8cecc;strokeColor=#b85450;" vertex="1" parent="TYjqbavaeQymizzAcwIQ-1">
          <mxGeometry x="10" y="270" width="180" height="40" as="geometry" />
        </mxCell>
        <mxCell id="TYjqbavaeQymizzAcwIQ-48" value="&lt;b&gt;&lt;u&gt;rxVlanDevInStackp&lt;/u&gt;&lt;/b&gt;" style="rhombus;whiteSpace=wrap;html=1;fontColor=#000000;fillColor=#ffffc0;strokeColor=#ff0000;" vertex="1" parent="TYjqbavaeQymizzAcwIQ-1">
          <mxGeometry x="10" y="330" width="180" height="40" as="geometry" />
        </mxCell>
        <mxCell id="TYjqbavaeQymizzAcwIQ-49" value="yes" style="edgeStyle=orthogonalEdgeStyle;html=1;align=left;verticalAlign=top;endArrow=open;endSize=8;strokeColor=#ff0000;rounded=0;entryX=0.5;entryY=0;entryDx=0;entryDy=0;" edge="1" parent="TYjqbavaeQymizzAcwIQ-1" source="TYjqbavaeQymizzAcwIQ-48" target="TYjqbavaeQymizzAcwIQ-52">
          <mxGeometry x="-1" relative="1" as="geometry">
            <mxPoint x="100" y="480" as="targetPoint" />
          </mxGeometry>
        </mxCell>
        <mxCell id="TYjqbavaeQymizzAcwIQ-50" value="End" style="ellipse;html=1;shape=endState;fillColor=#F6F6F6;strokeColor=light-dark(#0d0c0c, #017070);" vertex="1" parent="TYjqbavaeQymizzAcwIQ-1">
          <mxGeometry x="50" y="480" width="100" height="40" as="geometry" />
        </mxCell>
        <mxCell id="TYjqbavaeQymizzAcwIQ-51" style="edgeStyle=orthogonalEdgeStyle;rounded=0;orthogonalLoop=1;jettySize=auto;html=1;entryX=0.5;entryY=0;entryDx=0;entryDy=0;" edge="1" parent="TYjqbavaeQymizzAcwIQ-1" source="TYjqbavaeQymizzAcwIQ-52" target="TYjqbavaeQymizzAcwIQ-50">
          <mxGeometry relative="1" as="geometry" />
        </mxCell>
        <mxCell id="TYjqbavaeQymizzAcwIQ-52" value="netif_rx" style="rounded=1;whiteSpace=wrap;html=1;fillColor=#dae8fc;strokeColor=#6c8ebf;" vertex="1" parent="TYjqbavaeQymizzAcwIQ-1">
          <mxGeometry x="30" y="409.5" width="140" height="40" as="geometry" />
        </mxCell>
      </root>
    </mxGraphModel>
  </diagram>
</mxfile>
